<?xml version="1.0" encoding="utf-8"?>
<!-- Generator: Adobe Illustrator 27.7.0, SVG Export Plug-In . SVG Version: 6.00 Build 0)  -->
<svg version="1.1" id="Layer_1" xmlns="http://www.w3.org/2000/svg" xmlns:xlink="http://www.w3.org/1999/xlink" x="0px" y="0px"
	 viewBox="0 0 160 600" style="enable-background:new 0 0 160 600;" xml:space="preserve">
<style type="text/css">
	.st0{clip-path:url(#SVGID_00000145024197994255770240000002165040727550101437_);fill:none;stroke:#F29100;stroke-width:0.5;}
	.st1{fill:none;stroke:#F39200;stroke-width:0.5;}
	.st2{fill:#ED9100;}
	.st3{font-family:'Gotham-Light';}
	.st4{font-size:12px;}
	.st5{fill:#FFFFFF;}
	.st6{font-family:'Gotham-Book';}
	.st7{font-size:10px;}
	.st8{font-family:'Gotham-Thin';}
	.st9{font-family:'Gotham-Medium';}
	.st10{font-size:7.5px;}
	.st11{font-family:'Gotham-Black';}
	.st12{font-size:20px;}
	.st13{letter-spacing:-1;}
	.st14{clip-path:url(#SVGID_00000133504539773213164370000003696811309673207428_);}
	
		.st15{clip-path:url(#SVGID_00000083810827381290980990000014891383148093233854_);fill:none;stroke:#000000;stroke-width:4.698100e-02;}
	.st16{font-size:1.5504px;}
	.st17{font-size:1.6443px;}
	.st18{font-size:3.7585px;}
	.st19{font-family:'Gotham-Bold';}
	.st20{font-size:9.2692px;}
	.st21{fill-rule:evenodd;clip-rule:evenodd;fill:#FFFFFF;}
	.st22{fill:none;stroke:#FFFFFF;stroke-width:0.5;}
	.st23{clip-path:url(#SVGID_00000011024838641104768100000013673962703779129224_);}
	.st24{fill:#F39200;}
</style>
<g>
	<path d="M0.2,0.3c0,199.8,0,399.7,0,599.5c53.2,0,106.3,0,159.5,0c0-199.8,0-399.7,0-599.5C106.6,0.3,53.4,0.3,0.2,0.3L0.2,0.3z"/>
	<g>
		<g>
			<g>
				<defs>
					<rect id="SVGID_1_" y="0" width="160" height="600"/>
				</defs>
				<clipPath id="SVGID_00000015328090098486009010000009831367845586793118_">
					<use xlink:href="#SVGID_1_"  style="overflow:visible;"/>
				</clipPath>
				
					<path style="clip-path:url(#SVGID_00000015328090098486009010000009831367845586793118_);fill:none;stroke:#F29100;stroke-width:0.5;" d="
					M0.2,0.3c0,199.8,0,399.7,0,599.5c53.2,0,106.3,0,159.5,0c0-199.8,0-399.7,0-599.5C106.6,0.3,53.4,0.3,0.2,0.3L0.2,0.3z"/>
			</g>
		</g>
	</g>
	<line class="st1" x1="20" y1="543.3" x2="140" y2="543.3"/>
	<text transform="matrix(1 0 0 1 30.5573 497.7312)" class="st2 st3 st4">Get in t</text>
	<text transform="matrix(1 0 0 1 73.9323 497.7312)" class="st2 st3 st4">ouch and </text>
	<text transform="matrix(1 0 0 1 29.6042 512.1218)" class="st2 st3 st4">let’</text>
	<text transform="matrix(1 0 0 1 46.7995 512.1218)" class="st2 st3 st4">s see what </text>
	<text transform="matrix(1 0 0 1 112.862 512.1218)" class="st2 st3 st4">we</text>
	<text transform="matrix(1 0 0 1 129.8932 512.1218)" class="st2 st3 st4"> </text>
	<text transform="matrix(1 0 0 1 36.7917 526.5123)" class="st2 st3 st4">can do for </text>
	<text transform="matrix(1 0 0 1 100.987 526.5123)" class="st2 st3 st4">yo</text>
	<text transform="matrix(1 0 0 1 115.362 526.5123)" class="st2 st3 st4">u</text>
	<text transform="matrix(1 0 0 1 37.612 568.0203)" class="st5 st6 st7">ro</text>
	<text transform="matrix(1 0 0 1 47.9011 568.0203)" class="st5 st6 st7">b</text>
	<text transform="matrix(1 0 0 1 54.5417 568.0203)" class="st5 st8 st7">@</text>
	<text transform="matrix(1 0 0 1 64.0339 568.0203)" class="st5 st9 st7">hy</text>
	<text transform="matrix(1 0 0 1 75.7917 568.0203)" class="st5 st9 st7">design</text>
	<text transform="matrix(1 0 0 1 109.3229 568.0203)" class="st5 st8 st7">.u</text>
	<text transform="matrix(1 0 0 1 117.0417 568.0203)" class="st5 st8 st7">k</text>
	<text transform="matrix(1 0 0 1 38.6667 580.0203)" class="st5 st8 st7">www</text>
	<text transform="matrix(1 0 0 1 61.987 580.0203)" class="st5 st8 st7">.</text>
	<text transform="matrix(1 0 0 1 63.6276 580.0203)" class="st5 st6 st7">hy</text>
	<text transform="matrix(1 0 0 1 75.2995 580.0203)" class="st5 st6 st7">design</text>
	<text transform="matrix(1 0 0 1 108.2682 580.0203)" class="st5 st8 st7">.u</text>
	<text transform="matrix(1 0 0 1 115.987 580.0203)" class="st5 st8 st7">k</text>
	<text transform="matrix(1 0 0 1 44.1042 272.903)" class="st5 st6 st10">W</text>
	<text transform="matrix(1 0 0 1 52.2917 272.903)" class="st5 st6 st10">inner Best Post</text>
	<text transform="matrix(1 0 0 1 108.4167 272.903)" class="st5 st6 st10">er </text>
	<text transform="matrix(1 0 0 1 40.8854 281.8952)" class="st5 st6 st10">Bright</text>
	<text transform="matrix(1 0 0 1 63.8307 281.8952)" class="st5 st6 st10">on Fringe 2019</text>
	<text transform="matrix(1 0 0 1 51.1276 36.0202)" class="st5 st11 st12">NEED </text>
	<text transform="matrix(1 0 0 1 31.6979 60.0202)" class="st5 st11 st12">POS</text>
	<text transform="matrix(1 0 0 1 74.3151 60.0202)" class="st5 st11 st12">TERS </text>
	<text transform="matrix(1 0 0 1 31.2682 84.0124)" class="st5 st11 st12">&amp; FL</text>
	<text transform="matrix(1 0 0 1 73.487 84.0124)" class="st5 st11 st12">YERS </text>
	<text transform="matrix(1 0 0 1 25.5729 108.0202)" class="st5 st11 st12">FOR </text>
	<text transform="matrix(1 0 0 1 75.0964 108.0202)" class="st5 st11 st12 st13">YO</text>
	<text transform="matrix(1 0 0 1 104.8776 108.0202)" class="st5 st11 st12">UR </text>
	<text transform="matrix(1 0 0 1 41.3776 132.028)" class="st5 st11 st12">SHO</text>
	<text transform="matrix(1 0 0 1 85.4636 132.028)" class="st5 st11 st12">W?</text>
	<g>
		<g>
			<g>
				<defs>
					<rect id="SVGID_00000077303626266200963490000001418265249101838724_" x="40.2" y="150" width="79.1" height="112"/>
				</defs>
				<clipPath id="SVGID_00000027587129990532331610000011956786791174582963_">
					<use xlink:href="#SVGID_00000077303626266200963490000001418265249101838724_"  style="overflow:visible;"/>
				</clipPath>
				<g transform="matrix(1 0 0 1 0 0)" style="clip-path:url(#SVGID_00000027587129990532331610000011956786791174582963_);">
					
						<image style="overflow:visible;enable-background:new    ;" width="3142" height="4485" xlink:href="A56D63B161534548.jpg"  transform="matrix(2.514830e-02 0 0 2.512818e-02 40.292 149.5928)">
					</image>
				</g>
			</g>
		</g>
	</g>
	<g>
		<g>
			<g>
				<defs>
					<rect id="SVGID_00000118356128326232096870000016289055943350161294_" x="40.2" y="150" width="79.1" height="112"/>
				</defs>
				<clipPath id="SVGID_00000001646603571808990980000013599668303623171482_">
					<use xlink:href="#SVGID_00000118356128326232096870000016289055943350161294_"  style="overflow:visible;"/>
				</clipPath>
				
					<rect x="39.8" y="149.6" style="clip-path:url(#SVGID_00000001646603571808990980000013599668303623171482_);fill:none;stroke:#000000;stroke-width:4.698100e-02;" width="79.9" height="112.8"/>
			</g>
		</g>
	</g>
	<text transform="matrix(1 0 0 1 49.5104 242.3562)" class="st5 st9 st16">The Shame Sho</text>
	<text transform="matrix(1 0 0 1 61.5261 242.3562)" class="st5 st9 st16">w</text>
	<text transform="matrix(1 0 0 1 62.8698 242.3562)" class="st5 st8 st16"> in</text>
	<text transform="matrix(1 0 0 1 64.5495 242.3562)" class="st5 st8 st16">vi</text>
	<text transform="matrix(1 0 0 1 65.7604 242.3562)" class="st5 st8 st16">te</text>
	<text transform="matrix(1 0 0 1 67.2136 242.3562)" class="st5 st8 st16">s y</text>
	<text transform="matrix(1 0 0 1 69.2448 242.3562)" class="st5 st8 st16">ou </text>
	<text transform="matrix(1 0 0 1 71.6042 242.3562)" class="st5 st8 st16">to</text>
	<text transform="matrix(1 0 0 1 73.1432 242.3562)" class="st5 st8 st16"> </text>
	<text transform="matrix(1 0 0 1 73.5807 242.3562)" class="st5 st9 st16">get in</text>
	<text transform="matrix(1 0 0 1 78.0339 242.3562)" class="st5 st9 st16">v</text>
	<text transform="matrix(1 0 0 1 78.9089 242.3562)" class="st5 st9 st16">olv</text>
	<text transform="matrix(1 0 0 1 81.2448 242.3562)" class="st5 st9 st16">ed</text>
	<text transform="matrix(1 0 0 1 83.2214 242.3562)" class="st5 st8 st16"> in a </text>
	<text transform="matrix(1 0 0 1 86.6823 242.3562)" class="st5 st9 st16">dark game sh</text>
	<text transform="matrix(1 0 0 1 97.1901 242.3562)" class="st5 st9 st16">ow</text>
	<text transform="matrix(1 0 0 1 99.5182 242.3562)" class="st5 st8 st16">, based on the </text>
	<text transform="matrix(1 0 0 1 110.4167 242.3562)" class="st5 st8 st16"> </text>
	<text transform="matrix(1 0 0 1 52.6511 244.2233)" class="st5 st8 st16">w</text>
	<text transform="matrix(1 0 0 1 53.8542 244.2233)" class="st5 st8 st16">orld f</text>
	<text transform="matrix(1 0 0 1 57.6276 244.2233)" class="st5 st8 st16">amous </text>
	<text transform="matrix(1 0 0 1 63.0495 244.2233)" class="st5 st9 st16">politically incorr</text>
	<text transform="matrix(1 0 0 1 75.6823 244.2233)" class="st5 st9 st16">ect</text>
	<text transform="matrix(1 0 0 1 78.1432 244.2233)" class="st5 st8 st16"> party game,</text>
	<text transform="matrix(1 0 0 1 87.3151 244.2233)" class="st5 st8 st16"> </text>
	<text transform="matrix(1 0 0 1 87.7526 244.2233)" class="st5 st9 st16">Ca</text>
	<text transform="matrix(1 0 0 1 89.7995 244.2233)" class="st5 st9 st16">rd</text>
	<text transform="matrix(1 0 0 1 91.4636 244.2233)" class="st5 st9 st16">s </text>
	<text transform="matrix(1 0 0 1 92.6979 244.2233)" class="st5 st9 st16">Ag</text>
	<text transform="matrix(1 0 0 1 94.9323 244.2233)" class="st5 st9 st16">ainst Humanity</text>
	<text transform="matrix(1 0 0 1 106.5964 244.2233)" class="st5 st8 st16">. </text>
	<text transform="matrix(1 0 0 1 66.7292 246.739)" class="st5 st8 st16">Leav</text>
	<text transform="matrix(1 0 0 1 70.1979 246.739)" class="st5 st8 st16">e y</text>
	<text transform="matrix(1 0 0 1 72.3698 246.739)" class="st5 st8 st16">our </text>
	<text transform="matrix(1 0 0 1 75.2526 246.739)" class="st5 st9 st16">senstivities</text>
	<text transform="matrix(1 0 0 1 83.9245 246.739)" class="st5 st8 st16"> at the door</text>
	<text transform="matrix(1 0 0 1 92.5104 246.739)" class="st5 st8 st16">. </text>
	<text transform="matrix(1 0 0 1 93.1979 246.739)" class="st5 st8 st16"> </text>
	<text transform="matrix(1 0 0 1 59.8464 248.6062)" class="st5 st8 st16">Not </text>
	<text transform="matrix(1 0 0 1 63.0495 248.6062)" class="st5 st8 st16">fo</text>
	<text transform="matrix(1 0 0 1 64.5104 248.6062)" class="st5 st8 st16">r the </text>
	<text transform="matrix(1 0 0 1 68.3229 248.6062)" class="st5 st9 st16">light</text>
	<text transform="matrix(1 0 0 1 71.8542 248.6062)" class="st5 st8 st16"> hear</text>
	<text transform="matrix(1 0 0 1 75.5261 248.6062)" class="st5 st8 st16">te</text>
	<text transform="matrix(1 0 0 1 76.9792 248.6062)" class="st5 st8 st16">d,</text>
	<text transform="matrix(1 0 0 1 78.2526 248.6062)" class="st5 st8 st16"> </text>
	<text transform="matrix(1 0 0 1 78.6901 248.6062)" class="st5 st9 st16">f</text>
	<text transform="matrix(1 0 0 1 79.2448 248.6062)" class="st5 st9 st16">aint</text>
	<text transform="matrix(1 0 0 1 82.2057 248.6062)" class="st5 st8 st16"> heart</text>
	<text transform="matrix(1 0 0 1 86.4323 248.6062)" class="st5 st8 st16">ed or</text>
	<text transform="matrix(1 0 0 1 90.2917 248.6062)" class="st5 st8 st16"> </text>
	<text transform="matrix(1 0 0 1 90.7214 248.6062)" class="st5 st9 st16">bi</text>
	<text transform="matrix(1 0 0 1 92.2057 248.6062)" class="st5 st9 st16">g</text>
	<text transform="matrix(1 0 0 1 93.2448 248.6062)" class="st5 st8 st16"> hear</text>
	<text transform="matrix(1 0 0 1 96.9245 248.6062)" class="st5 st8 st16">te</text>
	<text transform="matrix(1 0 0 1 98.3854 248.6062)" class="st5 st8 st16">d.</text>
	<text transform="matrix(1 0 0 1 99.6511 248.6062)" class="st5 st8 st16"> </text>
	<text transform="matrix(1 0 0 1 61.487 257.1998)" class="st5 st9 st17">4</text>
	<text transform="matrix(1 0 0 1 62.6042 257.1998)" class="st5 st8 st17">, </text>
	<text transform="matrix(1 0 0 1 63.3386 257.1998)" class="st5 st9 st17">18</text>
	<text transform="matrix(1 0 0 1 65.0182 257.1998)" class="st5 st8 st17"> Ma</text>
	<text transform="matrix(1 0 0 1 67.7995 257.1998)" class="st5 st8 st17">y,</text>
	<text transform="matrix(1 0 0 1 68.8698 257.1998)" class="st5 st8 st17"> </text>
	<text transform="matrix(1 0 0 1 69.3386 257.1998)" class="st5 st9 st17">1</text>
	<text transform="matrix(1 0 0 1 69.987 257.1998)" class="st5 st8 st17"> June     |    </text>
	<text transform="matrix(1 0 0 1 78.8464 257.1998)" class="st5 st8 st17"> </text>
	<text transform="matrix(1 0 0 1 79.3073 257.1998)" class="st5 st9 st17">8</text>
	<text transform="matrix(1 0 0 1 80.3464 257.1998)" class="st5 st8 st17">pm    |     </text>
	<text transform="matrix(1 0 0 1 87.5026 257.1998)" class="st5 st8 st17">£</text>
	<text transform="matrix(1 0 0 1 88.4792 257.1998)" class="st5 st9 st17">5</text>
	<text transform="matrix(1 0 0 1 89.5104 257.1998)" class="st5 st8 st17">     |     </text>
	<text transform="matrix(1 0 0 1 94.5339 257.1998)" class="st5 st8 st17">(</text>
	<text transform="matrix(1 0 0 1 95.1745 257.1998)" class="st5 st9 st17">1</text>
	<text transform="matrix(1 0 0 1 95.8229 257.1998)" class="st5 st8 st17">hr)</text>
	<text transform="matrix(1 0 0 1 63.7448 259.1687)" class="st5 st9 st17">Junk</text>
	<text transform="matrix(1 0 0 1 67.6511 259.1687)" class="st5 st9 st17">ya</text>
	<text transform="matrix(1 0 0 1 69.5495 259.1687)" class="st5 st9 st17">rd</text>
	<text transform="matrix(1 0 0 1 71.3151 259.1687)" class="st5 st9 st17"> Dogs</text>
	<text transform="matrix(1 0 0 1 76.0964 259.1687)" class="st5 st8 st17">, 142 Ed</text>
	<text transform="matrix(1 0 0 1 81.9089 259.1687)" class="st5 st8 st17">wa</text>
	<text transform="matrix(1 0 0 1 84.1276 259.1687)" class="st5 st8 st17">rd</text>
	<text transform="matrix(1 0 0 1 85.7136 259.1687)" class="st5 st8 st17"> St, BN2 0JG</text>
	<text transform="matrix(1 0 0 1 46.8776 253.7468)" class="st5 st8 st18">T</text>
	<text transform="matrix(1 0 0 1 48.987 253.7468)" class="st5 st8 st18">her</text>
	<text transform="matrix(1 0 0 1 54.6276 253.7468)" class="st5 st8 st18">e will be priz</text>
	<text transform="matrix(1 0 0 1 76.4401 253.7468)" class="st5 st8 st18">es. </text>
	<text transform="matrix(1 0 0 1 82.1354 253.7468)" class="st5 st9 st18">V</text>
	<text transform="matrix(1 0 0 1 84.6979 253.7468)" class="st5 st9 st18">ery bad priz</text>
	<text transform="matrix(1 0 0 1 107.4636 253.7468)" class="st5 st9 st18">es.</text>
	<text transform="matrix(1 0 0 1 46.8776 221.9655)" class="st5 st19 st20">Cards </text>
	<text transform="matrix(1 0 0 1 99.4948 221.9655)" class="st5 st8 st20">the</text>
	<text transform="matrix(1 0 0 1 113.0651 221.9655)" class="st5 st19 st20"> </text>
	<text transform="matrix(1 0 0 1 46.8776 229.4265)" class="st5 st19 st20">A</text>
	<text transform="matrix(1 0 0 1 53.5104 229.4265)" class="st5 st19 st20">gainst </text>
	<text transform="matrix(1 0 0 1 85.5729 229.4265)" class="st5 st8 st20">shame</text>
	<text transform="matrix(1 0 0 1 113.0651 229.4265)" class="st5 st3 st20"> </text>
	<text transform="matrix(1 0 0 1 46.8776 236.903)" class="st5 st19 st20">Humanity </text>
	<text transform="matrix(1 0 0 1 91.1823 236.903)" class="st5 st8 st20">sho</text>
	<text transform="matrix(1 0 0 1 105.6198 236.903)" class="st5 st8 st20">w</text>
	<path class="st21" d="M109.3,153.2C109.3,153.2,109.3,153.3,109.3,153.2C109.3,153.3,109.3,153.3,109.3,153.2c0,0,0-0.1,0-0.2v-0.1
		l0,0l0,0C109.3,153,109.3,153,109.3,153.2C109.4,153.2,109.3,153.2,109.3,153.2 M108.6,154.4L108.6,154.4l-0.2,0.1
		c-0.1,0-0.2,0-0.2,0.1c-0.1,0-0.1,0-0.2,0h-0.1c0-0.1,0-0.1,0-0.1v-0.1c0-0.1,0-0.1,0-0.2l0,0c0.1,0,0.2,0,0.3,0h0.1h0.1
		C108.5,154.2,108.5,154.3,108.6,154.4C108.7,154.4,108.7,154.4,108.6,154.4 M107.8,153.5L107.8,153.5L107.8,153.5L107.8,153.5
		L107.8,153.5L107.8,153.5c0.2-0.1,0.2-0.1,0.3-0.1c0,0,0.1,0,0.1,0.1v0.1c-0.1,0.1-0.2,0.2-0.3,0.3h-0.1l0,0l0,0c0,0,0,0,0-0.1
		S107.8,153.7,107.8,153.5C107.8,153.6,107.8,153.6,107.8,153.5 M110.3,153.2c0-0.1,0-0.2,0-0.2c0-0.1,0-0.1-0.1-0.2l-0.1-0.1
		c0,0-0.1,0-0.1,0.1v0.1c0,0,0,0,0,0.1s0,0.2,0,0.2s0,0.1-0.1,0.1l0,0c-0.1,0.3-0.1,0.6-0.1,0.9l-0.1-0.1c-0.1-0.1-0.2-0.2-0.3-0.3
		c0,0,0,0,0-0.1s0-0.1,0-0.2l0.1-0.1c0.1-0.1,0.1-0.1,0.1-0.2v-0.1V153v-0.1l0,0c0-0.1-0.1-0.1-0.1-0.1c-0.1,0-0.1-0.1-0.2-0.1h-0.1
		c-0.1,0-0.1,0-0.1,0.1v0.1v0.1c0,0.1,0,0.2,0,0.3s0,0.1,0,0.2c0,0.1,0,0.2,0,0.3c0,0,0,0,0,0.1v0.1c0,0,0,0,0,0.1v0.1
		c0,0-0.1,0-0.1-0.1c-0.1-0.1-0.2-0.1-0.3-0.1s-0.1,0-0.2,0s-0.1,0-0.2,0c0,0,0,0-0.1,0l0,0l0,0c0,0,0,0,0.1,0l0,0
		c0.1,0,0.1-0.1,0.2-0.1l0.1-0.1l0.1-0.1l0,0c0-0.1,0-0.2-0.1-0.2s-0.1-0.1-0.2-0.1s-0.2-0.1-0.3-0.1s-0.1,0-0.1-0.1l0,0l0,0l0,0
		l0,0c-0.1,0-0.1,0-0.2,0h-0.1h-0.1c-0.1-0.1-0.1-0.1-0.2,0c-0.1,0-0.1,0.1-0.1,0.2v0.1l0,0l0,0c0,0.1,0,0.2,0,0.2
		c0,0.1,0,0.1,0,0.2c0,0.1,0,0.2,0,0.3s0,0.2,0,0.3v0.1l0,0l0,0l0,0v0.1c0,0.1,0,0.2,0.1,0.3c0,0.1,0,0.1,0.1,0.2
		c0,0.1,0,0.1,0.1,0.2c0,0,0,0,0.1,0l0,0l0,0c0,0,0,0,0.1,0c0,0,0,0,0-0.1c0,0,0,0,0-0.1l0,0l0,0c0.1,0,0.2-0.1,0.3-0.1
		s0.2-0.1,0.3-0.1l0,0l0,0l0,0l0,0l0,0l0,0l0,0h0.1c0,0,0.1,0,0.1-0.1c0,0,0,0,0.1,0s0.1,0,0.2-0.1l0,0l0,0c0,0.1,0,0.1,0,0.2
		c0,0.1,0.1,0.1,0.1,0.1c0.1,0,0.1,0,0.1-0.1l0,0c0-0.1,0-0.1,0-0.2v-0.1l0,0c0.1,0.1,0.1,0.1,0.2,0.2c0,0.1,0.1,0.1,0.1,0.2
		c0.1,0.1,0.1,0.1,0.2,0.2c0.1,0,0.2,0,0.2,0l0,0h0.1l0,0c0,0,0.1,0,0.1-0.1c0,0,0,0,0-0.1s0-0.1,0-0.2v-0.1c0-0.1,0-0.1,0-0.2
		c0-0.1,0-0.1,0-0.2l0,0c0-0.1,0-0.2,0-0.2c0-0.1,0-0.2,0-0.3v-0.1C110.3,153.3,110.3,153.2,110.3,153.2"/>
	<path class="st21" d="M118,156.5C118,156.6,118,156.6,118,156.5C117.9,156.6,117.9,156.6,118,156.5l-0.2,0.2c0,0-0.1,0.1,0,0.1
		c0,0.1,0.1,0.1,0.1,0.2v0.1l0,0c0,0,0,0,0-0.1v-0.1c0-0.1-0.1-0.1-0.1-0.1l0,0c0,0,0,0,0,0.1l0,0l0,0l0,0l0,0l0,0
		c0,0.1,0,0.1,0,0.2v0.1c0,0,0,0,0,0.1v0.1c0,0,0,0,0,0.1l0,0v-0.1l0,0l0,0v-0.1l0,0c0-0.1,0-0.1,0-0.2c0-0.1,0-0.1,0-0.2l0,0l0,0
		l0,0l0,0c0,0,0,0,0-0.1c0,0,0,0-0.1,0l0,0c0,0,0-0.1-0.1,0l0,0l0,0l0,0l0,0c0,0,0,0,0-0.1l0,0l0,0l0,0l0,0c0-0.1,0-0.1,0-0.1l0,0
		v-0.1h0.1c0,0,0.1,0,0.1-0.1C117.8,156.4,117.8,156.3,118,156.5L118,156.5C117.9,156.4,117.9,156.4,118,156.5L118,156.5
		C118,156.4,118.1,156.5,118,156.5C118.1,156.4,118.1,156.4,118,156.5L118,156.5c0.1,0,0.1,0,0.2,0l0,0l0,0
		C117.9,156.4,118,156.5,118,156.5L118,156.5L118,156.5z"/>
	<path class="st21" d="M110.4,151.5L110.4,151.5h0.2l0,0c0,0.1,0,0.1,0,0.2c0,0,0,0,0,0.1l0,0c0,0-0.1,0-0.1,0.1h0.1c0,0,0,0-0.1,0
		c0,0,0,0,0,0.1s0,0.1,0.1,0.2c0,0,0,0.1,0.1,0.1c0,0,0-0.1-0.1-0.1c0-0.1-0.1-0.1-0.1-0.2l0,0l0,0l0,0c0,0,0,0,0,0.1c0,0,0,0,0,0.1
		l0,0l0,0c0,0,0,0-0.1,0l0,0l0,0l0,0h-0.1l0,0v-0.1c-0.1,0-0.1,0-0.1-0.1l0,0v-0.1l0,0v-0.1c0,0,0,0,0.1,0c0,0,0-0.1,0.1-0.1l0,0
		c0,0,0,0,0.1,0l0,0C110.3,151.5,110.3,151.5,110.4,151.5C110.3,151.5,110.3,151.5,110.4,151.5L110.4,151.5L110.4,151.5z"/>
	<path class="st21" d="M109.8,155.7L109.8,155.7C109.7,155.7,109.7,155.7,109.8,155.7L109.8,155.7 M111.4,156L111.4,156
		c0.1-0.1,0.1-0.1,0.2-0.1c0.1-0.1,0.1-0.1,0.2-0.2c0,0,0.1-0.1,0-0.1c0-0.1-0.1-0.2-0.2-0.1c-0.1,0-0.1,0.1-0.2,0.1l0,0
		C111.4,155.7,111.5,155.8,111.4,156C111.4,155.9,111.4,156,111.4,156 M110.4,156.6L110.4,156.6L110.4,156.6L110.4,156.6
		c0,0.1,0,0.2,0,0.2v0.1l0,0l0,0c0,0.1-0.1,0.1-0.1,0.2c0,0,0,0-0.1,0c-0.1-0.1-0.1-0.2-0.1-0.3s0-0.2,0-0.2c0-0.1,0-0.2,0-0.3H110
		l0,0v-0.1c0-0.1,0.1-0.2,0-0.3v-0.1c0,0,0,0,0-0.1c0,0,0-0.1-0.1-0.1c0,0,0,0-0.1-0.1l0,0l0,0c0-0.1,0.1-0.2,0.1-0.2
		c0.1,0,0.2-0.1,0.2-0.1c0.1-0.1,0.2-0.1,0.3-0.2c0.1,0,0.1,0,0.2-0.1c0,0,0.1,0,0.1-0.1c0.1,0,0.1,0,0.2-0.1c0.1,0,0.1,0,0.2,0
		s0.2,0,0.3,0c0,0,0,0,0.1,0c0,0,0,0,0,0.1s-0.1,0.1-0.2,0.1c0,0-0.1,0-0.1,0.1l-0.1,0.1c-0.1,0-0.1,0.1-0.2,0.1h-0.1
		c-0.1,0-0.1,0-0.2,0.1c-0.1,0-0.2,0.1-0.2,0.1l0,0c0,0.1,0.1,0.1,0.1,0.2v0.1l0,0l0.1-0.1c0,0,0,0,0.1,0s0.1,0,0.2,0h0.1l0,0
		c0,0,0,0,0.1,0s0.1,0,0.1-0.1l0,0c0,0,0,0-0.1,0l0,0l0,0l0.1-0.1l0.1-0.1c0,0,0.1,0,0.1-0.1c0.1,0,0.1-0.1,0.2-0.1s0.2-0.1,0.3-0.1
		s0.2,0,0.3,0.1c0.1,0,0.1,0.1,0.1,0.2c0,0.1,0,0.1,0,0.2c0,0.1,0,0.1-0.1,0.1c0,0,0,0-0.1,0.1l-0.1,0.1c-0.1,0-0.1,0.1-0.2,0.1
		l-0.1,0.1l0,0l0,0l0,0l0,0l0,0l0,0c0,0,0.1,0,0.1,0.1l0,0c0,0.1,0.1,0.1,0.1,0.1s0.1,0,0.1,0.1l0,0l0,0c0,0,0,0,0.1,0.1l0,0l0,0
		c0,0,0,0,0.1,0l0,0l0,0c0-0.1,0-0.1,0-0.2c0-0.1,0-0.2,0-0.4c0-0.1,0-0.2,0-0.3s0-0.2,0-0.3v-0.1c0,0,0-0.1,0.1-0.1s0.1,0,0.2,0
		l0,0l0,0c0,0,0,0.1,0.1,0.1c0,0.1,0.1,0.2,0.1,0.2c0,0.1,0,0.1,0,0.2c0,0.2,0,0.5,0,0.8v0.1c0,0.1,0,0.1,0,0.2v0.1l0,0h-0.1h-0.1
		c0,0,0,0-0.1,0c0,0,0,0-0.1,0l0,0c0,0,0,0,0,0.1l0,0h-0.1h-0.1c-0.1-0.1-0.2-0.1-0.3-0.2c-0.1-0.1-0.2-0.2-0.3-0.2
		s-0.1-0.1-0.2-0.1c0,0,0,0-0.1,0c0,0,0,0,0,0.1s0,0.1,0,0.2c0,0.1,0,0.1,0,0.2c0,0.1,0,0.2,0,0.3h-0.1H111h-0.1
		c0-0.1-0.1-0.1-0.1-0.2c0-0.1,0-0.2-0.1-0.3v-0.1c0-0.1,0-0.2,0-0.2c0-0.1,0-0.2,0-0.3c0,0,0,0,0-0.1c0,0,0,0-0.1,0s-0.1,0-0.2,0.1
		c0,0,0,0-0.1,0s-0.1,0.1-0.2,0.1c0,0,0,0,0,0.1C110.3,156.5,110.3,156.5,110.4,156.6C110.3,156.6,110.3,156.6,110.4,156.6
		C110.3,156.6,110.4,156.6,110.4,156.6"/>
	<path class="st21" d="M111.3,153.7L111.3,153.7c-0.2,0-0.2,0-0.3,0h-0.1l0,0l0,0c0,0,0,0,0.1-0.1l0.1-0.1c0,0,0,0,0.1,0
		s0.1,0,0.2,0v-0.1l0,0h0.1c0,0,0,0,0.1-0.1h0.1c0,0,0,0,0.1,0.1l0,0c0.1,0,0.2,0,0.2,0l0,0c0-0.1,0-0.2,0.1-0.4c0,0,0,0,0-0.1
		l0.1-0.1c0.1-0.1,0.1,0,0.1,0v0.1c0,0.1,0,0.2,0,0.3c0,0,0,0.1,0.1,0.1s0.2,0,0.2,0l0,0c0-0.2,0-0.3,0-0.5c0-0.1,0-0.1,0-0.2v-0.1
		c0-0.1,0.1-0.1,0.1-0.1s0,0,0.1,0l0,0l0,0c0,0.1,0.1,0.2,0.1,0.3v0.1l0,0l0.1-0.1h0.1c0.1,0,0.1,0,0.2-0.1h0.1l0,0h0.1
		c0.1,0,0.1,0,0.2,0l0,0c0.1,0,0.1,0,0.2,0s0.2,0,0.3,0h0.1c0,0,0,0,0.1,0l0,0h-0.1l0,0c0,0-0.1,0-0.1,0.1c0,0,0,0-0.1,0l0,0
		c0,0,0,0-0.1,0s-0.1,0-0.2,0c0,0,0,0-0.1,0l0,0c0,0.1,0,0.1,0,0.2v0.1v0.1c0,0.1,0,0.2,0,0.4v0.1c0,0.1,0,0.2,0,0.3s0,0.1,0,0.2
		v0.1l0,0c0,0,0,0-0.1,0c0,0-0.1,0-0.1,0.1h-0.1c-0.1,0-0.1-0.1-0.2-0.2c0-0.1,0-0.1,0-0.2v-0.1c0-0.1,0-0.2,0-0.2
		c0-0.1,0-0.1,0-0.2c0-0.1,0-0.1,0-0.2c0-0.1,0-0.1,0-0.2c0-0.1,0-0.1,0-0.2l0,0l0,0c-0.1,0-0.1,0-0.2,0h-0.1l0,0c0,0.1,0,0.2,0,0.2
		s0,0,0,0.1h0.1c0,0,0,0,0.1,0l0,0l-0.1,0.1c0,0,0,0,0,0.1l0,0c0,0.1,0,0.2,0,0.3v0.1c0,0.1,0,0.2,0,0.3v0.1c0,0-0.1,0-0.1,0.1
		c0,0-0.1,0-0.1,0.1h-0.1h-0.1c0,0,0,0,0-0.1s0-0.2,0-0.2c0-0.1,0-0.2,0-0.3s0-0.1,0-0.2c0-0.1,0-0.1-0.1-0.1s-0.1,0-0.2,0
		c0,0,0,0-0.1,0l0,0c0,0.1,0,0.2,0,0.3c0,0.2,0,0.3,0,0.5c0,0,0,0.1-0.1,0.1c0,0-0.1,0-0.1,0.1c0,0,0,0-0.1,0l0,0c0,0,0,0-0.1,0
		c0-0.1-0.1-0.2-0.1-0.3V154v-0.1c0-0.1,0-0.2,0-0.4l0,0h-0.1l0,0v0.1c0,0.2,0,0.3,0,0.5v0.1l0,0l0,0c0,0,0,0-0.1,0l0,0h-0.1
		c0,0,0,0-0.1,0c0,0,0,0,0-0.1V154c-0.1,0-0.1,0-0.1,0.1c-0.1,0-0.1,0-0.2,0s-0.1,0-0.2,0s-0.1,0-0.2,0s-0.1-0.1-0.2-0.1l0,0
		c0-0.1-0.1-0.1-0.1-0.2c0-0.1-0.1-0.1-0.1-0.2c0-0.1,0-0.2,0-0.2c0-0.1,0-0.1,0-0.2v-0.1c0-0.1,0-0.1,0.1-0.2v-0.1
		c0-0.1,0.1-0.1,0.1-0.2c0.1-0.1,0.2-0.2,0.3-0.2s0.1-0.1,0.2-0.1c0,0,0.1,0,0.2,0h0.1c0.1,0,0.1,0,0.2,0l0.1,0.1v0.1c0,0,0,0-0.1,0
		l0,0c0,0,0,0-0.1,0s-0.1,0-0.2,0s-0.1,0-0.1,0s0,0-0.1,0c-0.1,0.1-0.1,0.1-0.2,0.2c0,0,0,0.1-0.1,0.1c0,0,0,0,0,0.1s0,0.1-0.1,0.2
		c0,0.1,0,0.2,0,0.3s0,0.2,0.1,0.3c0,0.1,0.1,0.2,0.2,0.2s0.1,0.1,0.2,0.1h0.1h0.1l0,0C111.2,153.9,111.2,153.8,111.3,153.7
		C111.3,153.9,111.3,153.8,111.3,153.7"/>
	<path class="st21" d="M116.6,155.4C116.6,155.5,116.6,155.5,116.6,155.4C116.5,155.5,116.5,155.5,116.6,155.4L116.6,155.4
		L116.6,155.4c-0.1,0.1-0.1,0.1-0.1,0.2v0.1c0,0,0,0.1-0.1,0.1s-0.2,0-0.3,0c0,0-0.1,0,0,0.1c0,0.1,0,0.2,0,0.3l0,0
		c0.1,0,0.1,0,0.2,0c0,0,0,0,0.1,0s0.2,0,0.2,0s0,0,0.1,0l0,0c0.1,0,0.1,0,0.2,0h0.1c0,0,0,0,0,0.1l0,0c0,0,0,0-0.1,0
		c0,0,0,0,0.1,0.1l0,0l-0.1,0.1c-0.1,0-0.1,0.1-0.2,0h-0.1c-0.1,0-0.1,0-0.2,0s-0.1,0-0.2,0s-0.1,0-0.2,0h-0.1c0,0-0.1,0-0.1-0.1
		v-0.1v-0.1c0-0.1,0-0.2,0-0.2v-0.1l0,0h-0.1c0,0,0,0,0,0.1s0,0.2,0,0.3s0,0.2,0,0.3s0,0.2,0,0.3s0,0.2,0,0.3s0,0.1,0,0.2
		c0,0.1,0,0.1-0.1,0.1s-0.1,0-0.2,0h-0.1h-0.1l0,0v-0.1c0-0.1,0-0.2-0.1-0.2v-0.1V157l0,0H115c-0.1,0-0.1,0-0.2,0s-0.1,0-0.1-0.1
		l0,0l-0.1-0.1v-0.1v-0.1c0-0.1,0-0.1,0-0.2c0-0.1,0-0.1,0-0.2v-0.1V156c0-0.1,0-0.1,0-0.2c0-0.1,0.1-0.2,0.1-0.2
		c0.1-0.1,0.2-0.2,0.3-0.3s0.3-0.1,0.4-0.1s0.2,0,0.2,0.1c0,0,0.1,0.1,0,0.1c0,0,0,0-0.1,0h-0.1h-0.1c-0.1,0-0.1,0-0.2,0.1
		s-0.1,0.2-0.2,0.3c0,0,0,0.1-0.1,0.2c0,0.2-0.1,0.3,0,0.5c0,0.1,0,0.1,0.1,0.2c0,0.1,0.1,0.2,0.2,0.2c0,0,0,0,0-0.1v-0.1
		c0-0.1,0-0.2,0-0.3c0,0,0,0,0-0.1c0,0,0,0-0.1,0l0,0c0,0,0,0,0-0.1l0,0c0.1,0,0.1-0.1,0.1-0.1s0,0,0.1,0h0.1c0.1,0,0.2,0,0.2,0h0.1
		l0,0c0-0.1,0-0.1,0-0.2v-0.1l0,0c0,0,0-0.1-0.1-0.1l0,0c0.1,0,0.1-0.1,0.2-0.1s0.2-0.1,0.2-0.1c0.1,0,0.2,0,0.2,0
		c0.1,0,0.1,0,0.2,0h0.1h0.1C116.5,155.5,116.5,155.5,116.6,155.4c-0.1,0.1-0.2,0.2-0.2,0.2l0,0l0,0l0,0h-0.1c0,0,0,0-0.1,0h-0.1
		c-0.1,0-0.2,0-0.3,0.1l0,0c0,0.1,0,0.1,0,0.2c0,0,0,0,0.1,0s0.1,0,0.2,0C116.4,155.4,116.5,155.4,116.6,155.4L116.6,155.4"/>
	<path class="st21" d="M113.3,157C113.3,156.9,113.3,156.9,113.3,157C113.3,156.9,113.3,156.9,113.3,157
		C113.3,156.9,113.3,156.9,113.3,157C113.3,156.9,113.3,156.9,113.3,157C113.2,156.9,113.2,156.9,113.3,157c-0.1,0-0.1,0-0.2,0l0,0
		v-0.1c0-0.1,0-0.1,0-0.2c0-0.1,0-0.2,0-0.3s0-0.2,0-0.3s0-0.3,0-0.4c0-0.1,0-0.2,0-0.2v-0.1l0,0c0,0,0,0,0-0.1c0,0,0,0,0.1,0l0,0
		h0.1c0,0,0,0,0.1,0c0,0,0.1,0,0.1,0.1s0.1,0.1,0.1,0.2l0.1,0.1c0.1,0.1,0.2,0.3,0.3,0.5c0,0.1,0.1,0.1,0.1,0.2l0,0l0,0v-0.1
		c0-0.1,0-0.1,0-0.2c0-0.1,0-0.2,0-0.3v-0.1c0-0.1,0-0.1,0-0.2c0-0.1,0-0.1,0-0.2c0-0.1,0-0.1,0-0.2l0,0V155l0,0c0,0,0,0,0.1,0h0.1
		c0.1,0,0.1,0,0.2,0c0,0,0,0,0,0.1s0,0.2,0,0.3s0,0.2,0,0.2c0,0.1,0,0.2,0,0.3s0,0.2,0,0.2c0,0.1,0,0.2,0,0.3s0,0.2,0,0.2
		c0,0.1,0,0.2,0,0.2c0,0.1,0,0.1,0,0.2v0.1v0.1l0,0c-0.1,0-0.1,0-0.2,0l0,0c0,0,0,0-0.1,0l0,0c0,0,0,0-0.1,0c0,0,0,0,0-0.1L114,157
		c-0.1-0.1-0.2-0.2-0.3-0.3c0-0.1-0.1-0.2-0.2-0.2l0,0l0,0v0.1c0,0.2,0,0.3,0,0.5C113.3,156.9,113.3,156.9,113.3,157
		C113.3,156.9,113.3,157,113.3,157L113.3,157"/>
	<path class="st21" d="M116.5,153.8C116.5,153.7,116.5,153.7,116.5,153.8c0-0.2,0-0.2,0-0.3s0-0.1,0-0.2c0-0.1,0-0.2,0-0.2
		c0-0.1,0-0.2,0-0.3l0,0c0-0.1,0-0.1,0.1-0.2l0.1-0.1c0,0,0,0,0.1-0.1l0.1,0.1c0,0.1,0.1,0.1,0.1,0.2c0,0.1,0,0.2,0,0.4
		c0,0.1,0,0.2,0,0.3c0,0,0,0,0,0.1s0,0.1,0,0.2c0,0.1,0,0.2,0,0.3s0,0.2,0,0.3s0,0.1,0,0.2c0,0,0,0,0,0.1l0,0l0,0l0,0c0,0,0,0-0.1,0
		l-0.1,0.1l0,0c0,0,0,0-0.1,0l0,0l0,0l0,0l0,0l0,0c0,0,0,0-0.1,0c0-0.1-0.1-0.1-0.1-0.2c0-0.1-0.1-0.2-0.1-0.2
		c0-0.1-0.1-0.1-0.1-0.2c0-0.1-0.1-0.2-0.1-0.3s-0.1-0.2-0.1-0.3l0,0l0,0c0,0.1,0,0.2,0,0.3s0,0.2-0.1,0.2c0,0.1-0.1,0.2-0.1,0.3
		c0,0,0,0,0,0.1c0,0,0,0.1-0.1,0.1h-0.1l0,0c0,0-0.1,0-0.1-0.1s0-0.1,0-0.2c0-0.1,0-0.2,0-0.2c0-0.1,0-0.2,0-0.2c0-0.1,0-0.2,0-0.3
		s0-0.1,0-0.2c0-0.1,0-0.1,0-0.2l0.1-0.1c0,0,0.1,0,0.1,0.1c0,0,0,0,0.1,0.1c0,0,0,0,0.1,0.1c0,0.1,0.1,0.1,0.1,0.2
		c0,0.1,0.1,0.1,0.1,0.2l0.1,0.1C116.4,153.6,116.4,153.7,116.5,153.8L116.5,153.8"/>
	<path class="st21" d="M115.3,153.7L115.3,153.7C115.3,153.6,115.3,153.6,115.3,153.7L115.3,153.7L115.3,153.7L115.3,153.7
		L115.3,153.7C115.3,153.8,115.3,153.8,115.3,153.7 M115.3,154L115.3,154L115.3,154L115.3,154C115.3,153.9,115.2,153.9,115.3,154
		C115.2,154,115.3,154,115.3,154 M114.4,153.9C114.4,154,114.4,154,114.4,153.9c0,0.1,0,0.2,0.1,0.2c0,0.1,0.1,0.1,0.1,0.1
		c0.1,0,0.1,0.1,0.2,0c0,0,0-0.1,0.1-0.1c0,0,0,0,0.1-0.1c0-0.1,0.1-0.1,0.1-0.2c0.1-0.1,0-0.3,0-0.4c0-0.1-0.1-0.1-0.1-0.2
		c-0.1,0-0.1-0.1-0.2-0.1l0,0c0,0.1-0.1,0.1-0.1,0.2c0,0.1-0.1,0.1-0.1,0.2C114.4,153.7,114.4,153.8,114.4,153.9 M114.9,153.1
		C114.9,153,114.9,153,114.9,153.1C115,153,115,153,114.9,153.1C115,153.1,115,153.1,114.9,153.1c0.1,0.1,0.2,0.1,0.2,0.1l0,0
		l0.1,0.1c0,0,0,0,0,0.1c0,0,0,0.1,0.1,0.2v0.1v0.1l0,0v0.1l0,0v-0.1l0,0v0.1l0,0l0,0c0,0,0,0.1-0.1,0.1c0,0,0,0-0.1,0l0,0l0,0l0,0
		l0,0l0,0c0,0,0,0.1-0.1,0.1l0,0c0,0.1,0,0.1-0.1,0.1c0,0,0,0,0,0.1l0,0h-0.1h-0.1c0,0,0,0-0.1,0s-0.1,0-0.2,0s-0.1,0.1-0.2,0.1
		s-0.1,0-0.2,0s-0.2-0.1-0.2-0.2l-0.1-0.1c0-0.1-0.1-0.2-0.1-0.2c0-0.1,0-0.2,0-0.2c0-0.1,0-0.1,0.1-0.2c0-0.1,0.1-0.1,0.1-0.2
		c0.1-0.1,0.2-0.2,0.3-0.3h0.1c0,0,0,0,0.1,0s0.1,0,0.2,0h0.1C114.8,153,114.8,153.1,114.9,153.1L114.9,153.1"/>
	<path class="st21" d="M112.1,154.7c0.1,0.1,0.2,0.3,0.2,0.4C112.3,155.1,112.1,154.8,112.1,154.7"/>
	<path class="st21" d="M110.8,152L110.8,152L110.8,152L110.8,152c0.1,0,0.2,0.1,0.2,0.1C110.9,152.1,110.9,152.1,110.8,152
		L110.8,152"/>
	<path class="st21" d="M111.1,153L111.1,153C111.1,153.1,111.1,153.1,111.1,153L111.1,153L111.1,153"/>
	<polygon class="st22" points="40.2,150 40.2,262 119.3,262 119.3,150 	"/>
	<g>
		<g>
			<g>
				<defs>
					<rect id="SVGID_00000174598925737021566580000013667358014677808304_" x="40.2" y="300.3" width="79.1" height="112"/>
				</defs>
				<clipPath id="SVGID_00000064344591647465655090000003769603078992243611_">
					<use xlink:href="#SVGID_00000174598925737021566580000013667358014677808304_"  style="overflow:visible;"/>
				</clipPath>
				
					<g transform="matrix(1 0 0 1 6.103516e-05 0)" style="clip-path:url(#SVGID_00000064344591647465655090000003769603078992243611_);">
					
						<image style="overflow:visible;enable-background:new    ;" width="560" height="787" xlink:href="A56D63B161534549.jpg"  transform="matrix(0.143 0 0 0.1426 39.7732 300.4385)">
					</image>
				</g>
			</g>
		</g>
	</g>
	<polygon class="st22" points="40.2,300.3 40.2,412.3 119.3,412.3 119.3,300.3 	"/>
</g>
<g>
	<path class="st24" d="M39.4,438.7c0,0,17,9.1,17,20.4c0,3.1-2.5,5.7-5.7,5.7s-5.7-2.5-5.7-5.7C45.1,453.5,50.7,454.9,39.4,438.7
		 M38.5,437.8l0.7,1c8.3,11.9,7.4,14.1,6.4,16.7c-0.4,1-0.8,2-0.8,3.5c0,3.3,2.7,6,6,6s6-2.7,6-6c0-2.6-0.9-5.4-2.7-8.1
		c-1.4-2.2-3.4-4.4-5.9-6.6c-4.2-3.7-8.5-6-8.5-6L38.5,437.8L38.5,437.8z"/>
	<path class="st24" d="M50.7,454.9c2.3,0,4.2,1.9,4.2,4.2c0,2.3-1.9,4.2-4.2,4.2s-4.2-1.9-4.2-4.2S48.4,454.9,50.7,454.9
		 M50.7,454.6c-2.5,0-4.5,2-4.5,4.5s2,4.5,4.5,4.5s4.5-2,4.5-4.5S53.2,454.6,50.7,454.6L50.7,454.6z"/>
	<path class="st24" d="M38.4,454c2.8,0,5.1,2.3,5.1,5.1s-2.3,5.1-5.1,5.1s-5.1-2.3-5.1-5.1S35.6,454,38.4,454 M38.4,453.7
		c-3,0-5.4,2.4-5.4,5.4s2.4,5.4,5.4,5.4s5.4-2.4,5.4-5.4S41.4,453.7,38.4,453.7L38.4,453.7z"/>
	<path class="st24" d="M37.5,438.7c-11.3,16.2-5.7,14.8-5.7,20.4c0,3.1-2.5,5.7-5.7,5.7s-5.7-2.5-5.7-5.7
		C20.5,447.8,37.5,438.7,37.5,438.7 M38.4,437.8l-1.1,0.6c0,0-4.3,2.3-8.5,6c-2.5,2.2-4.5,4.4-5.9,6.6c-1.8,2.8-2.7,5.5-2.7,8.1
		c0,3.3,2.7,6,6,6s6-2.7,6-6c0-1.5-0.4-2.5-0.8-3.5c-1-2.6-1.9-4.9,6.4-16.7L38.4,437.8L38.4,437.8z"/>
	<path class="st24" d="M26.2,454.9c2.3,0,4.2,1.9,4.2,4.2c0,2.3-1.9,4.2-4.2,4.2s-4.2-1.9-4.2-4.2C21.9,456.8,23.8,454.9,26.2,454.9
		 M26.2,454.6c-2.5,0-4.5,2-4.5,4.5s2,4.5,4.5,4.5s4.5-2,4.5-4.5S28.7,454.6,26.2,454.6L26.2,454.6z"/>
	<g>
		<path class="st5" d="M63.9,453L63.9,453v-13.3c0-0.2,0.1-0.4,0.2-0.5s0.3-0.2,0.5-0.2s0.4,0.1,0.5,0.2s0.2,0.3,0.2,0.5v0.1v4.2
			c0.2-0.2,0.4-0.4,0.6-0.6s0.5-0.3,0.8-0.4s0.6-0.2,0.9-0.3c0.3-0.1,0.6-0.1,0.9-0.1c0.6,0,1.2,0.1,1.8,0.4c0.6,0.2,1,0.6,1.5,1
			c0.4,0.4,0.7,0.9,1,1.5c0.2,0.6,0.4,1.1,0.4,1.8v5.8v0.1c0,0.2-0.1,0.4-0.2,0.5s-0.3,0.2-0.5,0.2s-0.4-0.1-0.5-0.2
			s-0.2-0.3-0.2-0.5v-5.9c0-0.4-0.1-0.8-0.3-1.2c-0.2-0.4-0.4-0.7-0.7-1c-0.3-0.3-0.6-0.5-1-0.7s-0.8-0.2-1.2-0.2
			c-0.4,0-0.8,0.1-1.2,0.3c-0.4,0.2-0.7,0.4-1,0.7c-0.3,0.3-0.5,0.6-0.7,1s-0.3,0.8-0.3,1.2v5.8v0.1c0,0.2-0.1,0.4-0.2,0.5
			s-0.3,0.2-0.5,0.2s-0.4-0.1-0.5-0.2C64,453.4,63.9,453.2,63.9,453z"/>
		<path class="st5" d="M78.5,456.6L78.5,456.6v-2.9c-0.4-0.1-0.7-0.2-1.1-0.3c-0.6-0.2-1-0.6-1.5-1c-0.4-0.4-0.7-0.9-1-1.5
			c-0.2-0.6-0.4-1.1-0.4-1.8v-5.4c0-0.2,0.1-0.4,0.2-0.5s0.3-0.2,0.5-0.2s0.4,0.1,0.5,0.2s0.2,0.3,0.2,0.5v5.4
			c0,0.4,0.1,0.8,0.3,1.2c0.2,0.4,0.4,0.7,0.7,1c0.3,0.3,0.6,0.5,1,0.7s0.8,0.2,1.2,0.2c0.4,0,0.8-0.1,1.2-0.2
			c0.4-0.2,0.7-0.4,1-0.7c0.3-0.3,0.5-0.6,0.7-1s0.2-0.8,0.2-1.2v-4.8v-0.5c0-0.2,0.1-0.4,0.2-0.5s0.3-0.2,0.5-0.2s0.4,0.1,0.5,0.2
			s0.2,0.3,0.2,0.5v0.5v4.8c0,0.6-0.1,1.2-0.4,1.8c-0.2,0.6-0.6,1-1,1.5c-0.4,0.4-0.9,0.7-1.5,1c-0.3,0.1-0.7,0.3-1.1,0.3v2.8v0.1
			c0,0.2-0.1,0.4-0.2,0.5s-0.3,0.2-0.5,0.2s-0.4-0.1-0.5-0.2C78.6,457,78.5,456.8,78.5,456.6z"/>
		<path class="st5" d="M96.2,439.8v8.4c0,0.8-0.1,1.5-0.4,2.2s-0.7,1.3-1.2,1.8s-1.1,0.9-1.8,1.2c-0.7,0.3-1.4,0.4-2.2,0.4
			c-0.8,0-1.5-0.1-2.2-0.4s-1.3-0.7-1.8-1.2s-0.9-1.1-1.2-1.8c-0.3-0.7-0.4-1.4-0.4-2.2c0-0.8,0.1-1.5,0.4-2.2s0.7-1.3,1.2-1.8
			s1.1-0.9,1.8-1.2c0.7-0.3,1.4-0.4,2.2-0.4c0.8,0,1.6,0.2,2.4,0.6s1.4,0.9,1.8,1.3v-4.8c0-0.2,0.1-0.4,0.2-0.5s0.3-0.2,0.5-0.2
			s0.4,0.1,0.5,0.2C96.1,439.4,96.2,439.6,96.2,439.8L96.2,439.8z M94.7,448.2c0-0.6-0.1-1.1-0.3-1.6c-0.2-0.5-0.5-1-0.9-1.3
			c-0.4-0.4-0.8-0.7-1.3-0.9c-0.5-0.2-1-0.3-1.6-0.3s-1.1,0.1-1.6,0.3c-0.5,0.2-1,0.5-1.3,0.9c-0.4,0.4-0.7,0.8-0.9,1.3
			c-0.2,0.5-0.3,1-0.3,1.6s0.1,1.1,0.3,1.6c0.2,0.5,0.5,1,0.9,1.3c0.4,0.4,0.8,0.7,1.3,0.9c0.5,0.2,1,0.3,1.6,0.3s1.1-0.1,1.6-0.3
			c0.5-0.2,1-0.5,1.3-0.9c0.4-0.4,0.7-0.8,0.9-1.3C94.6,449.3,94.7,448.7,94.7,448.2z"/>
		<path class="st5" d="M107.5,447.8h-8.9c0,0.1,0,0.3,0,0.4c0,0.6,0.1,1.1,0.3,1.6c0.2,0.5,0.5,1,0.9,1.3c0.4,0.4,0.8,0.7,1.3,0.9
			c0.5,0.2,1,0.3,1.6,0.3s1.1-0.1,1.6-0.3c0.5-0.2,1-0.5,1.3-0.9c0.2-0.2,0.4-0.4,0.4-0.5c0.1-0.1,0.2-0.2,0.3-0.3
			c0.1-0.1,0.2-0.1,0.4-0.1c0.2,0,0.4,0.1,0.5,0.2s0.2,0.3,0.2,0.5v0.1c0,0.3-0.3,0.6-0.8,1.1s-1.1,0.9-1.8,1.2
			c-0.7,0.3-1.4,0.4-2.2,0.4c-0.8,0-1.5-0.1-2.2-0.4s-1.3-0.7-1.8-1.2s-0.9-1.1-1.2-1.8c-0.3-0.7-0.4-1.4-0.4-2.2
			c0-0.8,0.1-1.5,0.4-2.2s0.7-1.3,1.2-1.8s1.1-0.9,1.8-1.2c0.7-0.3,1.4-0.4,2.2-0.4c0.8,0,1.5,0.1,2.2,0.4s1.3,0.7,1.8,1.2
			s0.9,1.1,1.2,1.8c0.2,0.4,0.3,0.7,0.3,0.9c0.1,0.3,0,0.6-0.1,0.7C108,447.7,107.8,447.8,107.5,447.8z M105.8,445.2
			c-0.4-0.4-0.8-0.7-1.3-0.9c-0.5-0.2-1-0.3-1.6-0.3s-1.1,0.1-1.6,0.3c-0.5,0.2-1,0.5-1.3,0.9c-0.3,0.3-0.6,0.7-0.8,1.1h7.5
			C106.3,445.9,106.1,445.6,105.8,445.2z"/>
		<path class="st5" d="M108.8,450.9c0-0.2,0.1-0.4,0.2-0.5s0.3-0.2,0.5-0.2c0.1,0,0.3,0,0.4,0.1s0.2,0.2,0.2,0.3
			c0.3,0.7,0.7,1.1,1.1,1.4s0.9,0.4,1.5,0.4c0.7,0,1.2-0.2,1.5-0.5s0.5-0.7,0.5-1.1c0-0.5-0.1-0.8-0.3-1.1c-0.2-0.3-0.5-0.5-0.8-0.6
			c-0.4-0.2-0.8-0.3-1.3-0.4s-1-0.3-1.5-0.5c-0.4-0.2-0.8-0.5-1.2-0.9c-0.3-0.4-0.5-0.9-0.6-1.4c-0.1-0.4,0-0.9,0.2-1.2
			c0.2-0.4,0.4-0.7,0.7-1c0.3-0.3,0.7-0.5,1.1-0.7s0.9-0.3,1.4-0.3s1,0.1,1.4,0.3c0.4,0.2,0.7,0.4,0.9,0.5c0.2,0.2,0.3,0.3,0.4,0.4
			s0.2,0.3,0.2,0.4s0,0.3,0,0.4s-0.1,0.2-0.2,0.3c-0.1,0.1-0.2,0.1-0.4,0.1c-0.1,0-0.3,0-0.4-0.1s-0.2-0.2-0.3-0.4
			c-0.1-0.2-0.3-0.4-0.6-0.5c-0.3-0.1-0.6-0.2-1-0.2c-0.3,0-0.6,0.1-0.9,0.2s-0.6,0.3-0.9,0.7c-0.3,0.3-0.4,0.7-0.3,1
			s0.2,0.6,0.5,0.8c0.3,0.2,0.6,0.3,1,0.5c0.4,0.1,0.9,0.3,1.4,0.5s1,0.4,1.4,0.7c0.4,0.3,0.8,0.6,1,1s0.4,0.9,0.4,1.6
			c0,0.5-0.1,0.9-0.3,1.3c-0.2,0.4-0.5,0.7-0.8,1s-0.7,0.5-1.2,0.6c-0.4,0.1-0.9,0.2-1.4,0.2s-0.9-0.1-1.4-0.3
			c-0.5-0.2-0.9-0.4-1.2-0.7c-0.3-0.3-0.6-0.6-0.8-0.9c-0.2-0.3-0.3-0.5-0.3-0.6C108.9,451.1,108.8,451,108.8,450.9z"/>
		<path class="st5" d="M117.3,443.8c0-0.2,0.1-0.4,0.2-0.5s0.3-0.2,0.5-0.2s0.4,0.1,0.5,0.2s0.2,0.3,0.2,0.5v9.2
			c0,0.2-0.1,0.4-0.2,0.5s-0.3,0.2-0.5,0.2s-0.4-0.1-0.5-0.2s-0.2-0.3-0.2-0.5V443.8z"/>
		<path class="st5" d="M121.6,453.8c0.4,1.1,1.4,2.2,2.9,2.2c1.8,0,3.2-1.9,3.2-3.9c0,0-0.9,0.9-1.4,1.2c-0.6,0.3-1.1,0.4-1.8,0.4
			c-0.6,0-1.2-0.1-1.8-0.4c-0.6-0.3-1-0.7-1.4-1.2s-0.7-1.1-1-1.8c-0.2-0.7-0.4-1.4-0.4-2.2c0-0.8,0.1-1.5,0.4-2.2
			c0.2-0.7,0.6-1.3,1-1.8s0.9-0.9,1.4-1.2c0.6-0.3,1.1-0.4,1.8-0.4c0.6,0,1.2,0.1,1.8,0.4c0.6,0.3,1,0.7,1.4,1.2
			c0.1,0.1,0.1,0.1,0.2,0.2v-0.6v-0.1c0-0.2,0.1-0.4,0.2-0.5c0.1-0.1,0.3-0.2,0.4-0.2c0.2,0,0.3,0.1,0.4,0.2
			c0.1,0.1,0.2,0.3,0.2,0.5v0.1v7.2c0,5.8-3.6,6.3-4.5,6.3c-0.6,0-2.6-0.2-4-2.6C120,453.8,121.2,453.2,121.6,453.8z M124.5,444
			c-1.7,0-3.1,1.9-3.1,4.2c0,2.3,1.4,4.2,3.1,4.2s3.1-1.9,3.1-4.2S126.2,444,124.5,444z"/>
		<path class="st5" d="M130.6,443.8c0-0.2,0.1-0.4,0.2-0.5c0.1-0.1,0.3-0.2,0.5-0.2s0.4,0.1,0.5,0.2s0.2,0.3,0.2,0.5v0.2
			c0.1-0.2,0.3-0.4,0.5-0.6s0.5-0.3,0.8-0.5c0.3-0.1,0.6-0.2,0.9-0.3c0.3-0.1,0.6-0.1,0.9-0.1c0.6,0,1.2,0.1,1.8,0.4
			c0.6,0.2,1,0.6,1.5,1c0.4,0.4,0.7,0.9,1,1.5c0.2,0.6,0.4,1.2,0.3,1.8v5.8c0,0.2-0.1,0.4-0.2,0.5c-0.1,0.1-0.3,0.2-0.5,0.2
			s-0.4-0.1-0.5-0.2s-0.2-0.3-0.2-0.5v-5.8c0-0.4-0.1-0.8-0.2-1.2c-0.2-0.4-0.4-0.7-0.7-1s-0.6-0.5-1-0.7s-0.8-0.2-1.2-0.2
			s-0.8,0.1-1.2,0.3c-0.4,0.2-0.7,0.4-1,0.7c-0.3,0.3-0.5,0.6-0.7,1c-0.1,0.3-0.2,0.7-0.2,1v6c0,0.2-0.1,0.4-0.2,0.5
			c-0.1,0.1-0.3,0.2-0.5,0.2s-0.4-0.1-0.5-0.2s-0.2-0.3-0.2-0.5v-9.3H130.6z"/>
	</g>
	<g>
		<path class="st5" d="M66.6,463.3L66.6,463.3v-0.2l-0.1,0.1c-0.1,0.1-0.3,0.2-0.5,0.3c-0.2,0.1-0.4,0.1-0.6,0.1s-0.4,0-0.6-0.1
			s-0.4-0.2-0.5-0.3c-0.1-0.1-0.3-0.3-0.3-0.5c-0.1-0.2-0.1-0.4-0.1-0.6s0-0.4,0.1-0.6s0.2-0.4,0.3-0.5c0.1-0.1,0.3-0.3,0.5-0.3
			c0.2-0.1,0.4-0.1,0.6-0.1s0.4,0,0.6,0.1s0.4,0.2,0.5,0.3c0.1,0.1,0.3,0.3,0.3,0.5c0.1,0.2,0.1,0.4,0.1,0.6v1.2
			c0,0.1,0,0.1-0.1,0.1l-0.1,0.1c-0.1,0-0.1,0-0.1-0.1C66.6,463.4,66.6,463.4,66.6,463.3z M64.3,462.1c0,0.2,0,0.3,0.1,0.4
			s0.1,0.3,0.2,0.4s0.2,0.2,0.4,0.2c0.1,0.1,0.3,0.1,0.4,0.1c0.2,0,0.3,0,0.4-0.1s0.3-0.1,0.4-0.2s0.2-0.2,0.2-0.4
			c0.1-0.1,0.1-0.3,0.1-0.4V462c0-0.2,0-0.3-0.1-0.4s-0.1-0.3-0.2-0.4S66,461,65.8,461c-0.1-0.1-0.3-0.1-0.4-0.1
			c-0.2,0-0.3,0-0.4,0.1s-0.3,0.1-0.4,0.2s-0.2,0.2-0.2,0.4C64.3,461.8,64.3,462,64.3,462.1z"/>
		<path class="st5" d="M67.2,460.9c0-0.1,0-0.1,0.1-0.1l0.1-0.1c0.1,0,0.1,0,0.1,0.1l0.1,0.1v1.5c0,0.1,0,0.2,0.1,0.3
			c0,0.1,0.1,0.2,0.2,0.3c0.1,0.1,0.2,0.1,0.3,0.2c0.1,0,0.2,0.1,0.3,0.1c0.1,0,0.2,0,0.3-0.1c0.1,0,0.2-0.1,0.3-0.2
			c0.1-0.1,0.1-0.2,0.2-0.3c0-0.1,0.1-0.2,0.1-0.3v-1.5c0-0.1,0-0.1,0.1-0.1l0.1-0.1c0.1,0,0.1,0,0.1,0.1l0.1,0.1v1.5
			c0,0.1,0,0.2,0.1,0.3c0,0.1,0.1,0.2,0.2,0.3c0.1,0.1,0.2,0.1,0.3,0.2c0.1,0,0.2,0.1,0.3,0.1c0.1,0,0.2,0,0.3-0.1
			c0.1,0,0.2-0.1,0.3-0.2c0.1-0.1,0.1-0.2,0.2-0.3c0-0.1,0.1-0.2,0.1-0.3v-1.5c0-0.1,0-0.1,0.1-0.1l0.1-0.1c0.1,0,0.1,0,0.1,0.1
			l0.1,0.1v1.5c0,0.2,0,0.3-0.1,0.5s-0.2,0.3-0.3,0.4c-0.1,0.1-0.3,0.2-0.4,0.3c-0.2,0.1-0.3,0.1-0.5,0.1s-0.4-0.1-0.6-0.2
			s-0.3-0.2-0.4-0.4c-0.1,0.2-0.3,0.3-0.5,0.4s-0.4,0.2-0.6,0.2s-0.3,0-0.5-0.1s-0.3-0.2-0.4-0.3c-0.1-0.1-0.2-0.2-0.3-0.4
			c-0.1-0.2-0.1-0.3-0.1-0.5L67.2,460.9L67.2,460.9z"/>
		<path class="st5" d="M74.8,463.3L74.8,463.3v-0.2l-0.1,0.1c-0.1,0.1-0.3,0.2-0.5,0.3c-0.2,0.1-0.4,0.1-0.6,0.1s-0.4,0-0.6-0.1
			s-0.4-0.2-0.5-0.3c-0.1-0.1-0.3-0.3-0.3-0.5c-0.1-0.2-0.1-0.4-0.1-0.6s0-0.4,0.1-0.6s0.2-0.4,0.3-0.5c0.1-0.1,0.3-0.3,0.5-0.3
			c0.2-0.1,0.4-0.1,0.6-0.1s0.4,0,0.6,0.1s0.4,0.2,0.5,0.3c0.1,0.1,0.3,0.3,0.3,0.5c0.1,0.2,0.1,0.4,0.1,0.6v1.2
			c0,0.1,0,0.1-0.1,0.1l-0.1,0.1c-0.1,0-0.1,0-0.1-0.1C74.8,463.4,74.8,463.4,74.8,463.3z M72.5,462.1c0,0.2,0,0.3,0.1,0.4
			s0.1,0.3,0.2,0.4s0.2,0.2,0.4,0.2c0.1,0.1,0.3,0.1,0.4,0.1c0.2,0,0.3,0,0.4-0.1s0.3-0.1,0.4-0.2s0.2-0.2,0.2-0.4
			c0.1-0.1,0.1-0.3,0.1-0.4V462c0-0.2,0-0.3-0.1-0.4s-0.1-0.3-0.2-0.4S74.2,461,74,461c-0.1-0.1-0.3-0.1-0.4-0.1
			c-0.2,0-0.3,0-0.4,0.1s-0.3,0.1-0.4,0.2s-0.2,0.2-0.2,0.4C72.5,461.8,72.5,462,72.5,462.1z"/>
		<path class="st5" d="M75.6,463.3v-2.4c0-0.1,0-0.1,0.1-0.1l0.1-0.1c0.1,0,0.1,0,0.1,0.1l0.1,0.1v0.3c0,0,0-0.1,0.1-0.1
			c0.1-0.1,0.3-0.3,0.5-0.3c0.2-0.1,0.4-0.1,0.6-0.1l0,0c0.1,0,0.1,0,0.1,0.1l0.1,0.1c0,0.1,0,0.1-0.1,0.1l-0.1,0.1l0,0
			c-0.2,0-0.3,0-0.4,0.1s-0.3,0.1-0.4,0.2s-0.2,0.2-0.2,0.4c-0.1,0.1-0.1,0.3-0.1,0.4v1.1c0,0.1,0,0.1-0.1,0.1l-0.1,0.1
			c-0.1,0-0.1,0-0.1-0.1C75.6,463.4,75.6,463.4,75.6,463.3z"/>
		<path class="st5" d="M80.3,459.8v2.3c0,0.2,0,0.4-0.1,0.6s-0.2,0.4-0.3,0.5c-0.1,0.1-0.3,0.3-0.5,0.3c-0.2,0.1-0.4,0.1-0.6,0.1
			s-0.4,0-0.6-0.1s-0.4-0.2-0.5-0.3c-0.1-0.1-0.3-0.3-0.3-0.5c-0.1-0.2-0.1-0.4-0.1-0.6s0-0.4,0.1-0.6s0.2-0.4,0.3-0.5
			c0.1-0.1,0.3-0.3,0.5-0.3c0.2-0.1,0.4-0.1,0.6-0.1s0.4,0.1,0.7,0.2c0.2,0.1,0.4,0.2,0.5,0.4v-1.3c0-0.1,0-0.1,0.1-0.1l0.1-0.1
			C80.3,459.7,80.3,459.7,80.3,459.8C80.3,459.7,80.3,459.7,80.3,459.8L80.3,459.8z M79.9,462.1c0-0.2,0-0.3-0.1-0.4
			s-0.1-0.3-0.2-0.4s-0.2-0.2-0.4-0.2c-0.1-0.1-0.3-0.1-0.4-0.1s-0.3,0-0.4,0.1s-0.3,0.1-0.4,0.2s-0.2,0.2-0.2,0.4
			c-0.1,0.1-0.1,0.3-0.1,0.4c0,0.2,0,0.3,0.1,0.4s0.1,0.3,0.2,0.4s0.2,0.2,0.4,0.2c0.1,0.1,0.3,0.1,0.4,0.1s0.3,0,0.4-0.1
			s0.3-0.1,0.4-0.2s0.2-0.2,0.2-0.4C79.9,462.4,79.9,462.3,79.9,462.1z"/>
		<path class="st5" d="M82.6,460.9c0-0.1,0-0.1,0.1-0.1l0.1-0.1c0.1,0,0.1,0,0.1,0.1l0.1,0.1v1.5c0,0.1,0,0.2,0.1,0.3
			c0,0.1,0.1,0.2,0.2,0.3c0.1,0.1,0.2,0.1,0.3,0.2c0.1,0,0.2,0.1,0.3,0.1c0.1,0,0.2,0,0.3-0.1c0.1,0,0.2-0.1,0.3-0.2
			c0.1-0.1,0.1-0.2,0.2-0.3c0-0.1,0.1-0.2,0.1-0.3v-1.5c0-0.1,0-0.1,0.1-0.1l0.1-0.1c0.1,0,0.1,0,0.1,0.1l0.1,0.1v1.5
			c0,0.1,0,0.2,0.1,0.3c0,0.1,0.1,0.2,0.2,0.3c0.1,0.1,0.2,0.1,0.3,0.2c0.1,0,0.2,0.1,0.3,0.1c0.1,0,0.2,0,0.3-0.1
			c0.1,0,0.2-0.1,0.3-0.2c0.1-0.1,0.1-0.2,0.2-0.3c0-0.1,0.1-0.2,0.1-0.3v-1.5c0-0.1,0-0.1,0.1-0.1l0.1-0.1c0.1,0,0.1,0,0.1,0.1
			l0.1,0.1v1.5c0,0.2,0,0.3-0.1,0.5s-0.2,0.3-0.3,0.4c-0.1,0.1-0.3,0.2-0.4,0.3c-0.2,0.1-0.3,0.1-0.5,0.1s-0.4-0.1-0.6-0.2
			s-0.3-0.2-0.4-0.4c-0.1,0.2-0.3,0.3-0.5,0.4s-0.4,0.2-0.6,0.2s-0.3,0-0.5-0.1s-0.3-0.2-0.4-0.3c-0.1-0.1-0.2-0.2-0.3-0.4
			c-0.1-0.2-0.1-0.3-0.1-0.5L82.6,460.9L82.6,460.9z"/>
		<path class="st5" d="M87.6,459.8c0-0.1,0-0.1,0.1-0.2c0,0,0.1-0.1,0.2-0.1s0.1,0,0.2,0.1c0,0,0.1,0.1,0.1,0.2s0,0.1-0.1,0.2
			c0,0-0.1,0.1-0.2,0.1s-0.1,0-0.2-0.1S87.6,459.9,87.6,459.8z M87.6,460.9c0-0.1,0-0.1,0.1-0.1l0.1-0.1c0.1,0,0.1,0,0.1,0.1
			l0.1,0.1v2.4c0,0.1,0,0.1-0.1,0.1l-0.1,0.1c-0.1,0-0.1,0-0.1-0.1l-0.1-0.1V460.9z"/>
		<path class="st5" d="M88.4,460.9c0-0.1,0-0.1,0.1-0.1l0.1-0.1c0.1,0,0.1,0,0.1,0.1l0.1,0.1v0.1c0-0.1,0.1-0.1,0.2-0.2
			s0.1-0.1,0.2-0.1s0.2-0.1,0.2-0.1c0.1,0,0.2,0,0.3,0c0.2,0,0.3,0,0.5,0.1s0.3,0.2,0.4,0.3c0.1,0.1,0.2,0.2,0.3,0.4
			c0.1,0.2,0.1,0.3,0.1,0.5v1.5c0,0.1,0,0.1-0.1,0.1l-0.1,0.1c-0.1,0-0.1,0-0.1-0.1l-0.1-0.1v-1.5c0-0.1,0-0.2-0.1-0.3
			c0-0.1-0.1-0.2-0.2-0.3c-0.1-0.1-0.2-0.1-0.3-0.2c-0.1,0-0.2-0.1-0.3-0.1c-0.1,0-0.2,0-0.3,0.1c-0.1,0-0.2,0.1-0.3,0.2
			c-0.1,0.1-0.1,0.2-0.2,0.3c0,0.1-0.1,0.2-0.1,0.3v1.5c0,0.1,0,0.1-0.1,0.1l-0.1,0.1c-0.1,0-0.1,0-0.1-0.1l-0.1-0.1V460.9z"/>
		<path class="st5" d="M91.3,460.9c0-0.1,0-0.1,0.1-0.1l0.1-0.1c0.1,0,0.1,0,0.1,0.1l0.1,0.1v0.1c0-0.1,0.1-0.1,0.2-0.2
			s0.1-0.1,0.2-0.1s0.2-0.1,0.2-0.1c0.1,0,0.2,0,0.3,0c0.2,0,0.3,0,0.5,0.1s0.3,0.2,0.4,0.3c0.1,0.1,0.2,0.2,0.3,0.4
			c0.1,0.2,0.1,0.3,0.1,0.5v1.5c0,0.1,0,0.1-0.1,0.1l-0.1,0.1c-0.1,0-0.1,0-0.1-0.1l-0.1-0.1v-1.5c0-0.1,0-0.2-0.1-0.3
			c0-0.1-0.1-0.2-0.2-0.3c-0.1-0.1-0.2-0.1-0.3-0.2c-0.1,0-0.2-0.1-0.3-0.1c-0.1,0-0.2,0-0.3,0.1c-0.1,0-0.2,0.1-0.3,0.2
			c-0.1,0.1-0.1,0.2-0.2,0.3c0,0.1-0.1,0.2-0.1,0.3v1.5c0,0.1,0,0.1-0.1,0.1l-0.1,0.1c-0.1,0-0.1,0-0.1-0.1l-0.1-0.1V460.9z"/>
		<path class="st5" d="M94.2,459.8c0-0.1,0-0.1,0.1-0.2c0,0,0.1-0.1,0.2-0.1s0.1,0,0.2,0.1c0,0,0.1,0.1,0.1,0.2s0,0.1-0.1,0.2
			c0,0-0.1,0.1-0.2,0.1s-0.1,0-0.2-0.1S94.2,459.9,94.2,459.8z M94.2,460.9c0-0.1,0-0.1,0.1-0.1l0.1-0.1c0.1,0,0.1,0,0.1,0.1
			l0.1,0.1v2.4c0,0.1,0,0.1-0.1,0.1l-0.1,0.1c-0.1,0-0.1,0-0.1-0.1l-0.1-0.1V460.9z"/>
		<path class="st5" d="M95,460.9c0-0.1,0-0.1,0.1-0.1l0.1-0.1c0.1,0,0.1,0,0.1,0.1l0.1,0.1v0.1c0-0.1,0.1-0.1,0.2-0.2
			s0.1-0.1,0.2-0.1s0.2-0.1,0.2-0.1c0.1,0,0.2,0,0.3,0c0.2,0,0.3,0,0.5,0.1s0.3,0.2,0.4,0.3c0.1,0.1,0.2,0.2,0.3,0.4
			c0.1,0.2,0.1,0.3,0.1,0.5v1.5c0,0.1,0,0.1-0.1,0.1l-0.1,0.1c-0.1,0-0.1,0-0.1-0.1l-0.1-0.1v-1.5c0-0.1,0-0.2-0.1-0.3
			c0-0.1-0.1-0.2-0.2-0.3c-0.1-0.1-0.2-0.1-0.3-0.2c-0.1,0-0.2-0.1-0.3-0.1c-0.1,0-0.2,0-0.3,0.1c-0.1,0-0.2,0.1-0.3,0.2
			c-0.1,0.1-0.1,0.2-0.2,0.3c0,0.1-0.1,0.2-0.1,0.3v1.5c0,0.1,0,0.1-0.1,0.1l-0.1,0.1c-0.1,0-0.1,0-0.1-0.1l-0.1-0.1V460.9z"/>
		<path class="st5" d="M98.1,463.9c0-0.1,0-0.1,0.1-0.1l0.1-0.1h0.1c0,0,0.1,0,0.1,0.1s0.1,0.1,0.2,0.2s0.2,0.2,0.4,0.2
			c0.1,0.1,0.3,0.1,0.4,0.1c0.2,0,0.3,0,0.4-0.1s0.3-0.1,0.4-0.2s0.2-0.2,0.2-0.4c0.1-0.1,0.1-0.3,0.1-0.4v-0.1l-0.1,0.1
			c-0.1,0.1-0.3,0.2-0.5,0.3c-0.2,0.1-0.4,0.1-0.6,0.1s-0.4,0-0.6-0.1s-0.4-0.2-0.5-0.3c-0.1-0.1-0.3-0.3-0.3-0.5
			c-0.1-0.2-0.1-0.4-0.1-0.6s0-0.4,0.1-0.6s0.2-0.4,0.3-0.5c0.1-0.1,0.3-0.3,0.5-0.3c0.2-0.1,0.4-0.1,0.6-0.1s0.4,0,0.6,0.1
			s0.4,0.2,0.5,0.3c0,0,0,0,0.1,0.1v-0.2l0,0c0-0.1,0-0.1,0.1-0.1l0.1-0.1c0.1,0,0.1,0,0.1,0.1l0.1,0.1l0,0v2.3c0,0.2,0,0.4-0.1,0.6
			s-0.2,0.4-0.3,0.5c-0.1,0.1-0.3,0.3-0.5,0.3c-0.2,0.1-0.4,0.1-0.6,0.1s-0.4,0-0.6-0.1s-0.4-0.2-0.5-0.3c-0.1-0.1-0.1-0.2-0.2-0.3
			C98.1,464,98.1,464,98.1,463.9z M98.3,462.1c0,0.2,0,0.3,0.1,0.4s0.1,0.3,0.2,0.4s0.2,0.2,0.4,0.2c0.1,0.1,0.3,0.1,0.4,0.1
			c0.2,0,0.3,0,0.4-0.1s0.3-0.1,0.4-0.2s0.2-0.2,0.2-0.4c0.1-0.1,0.1-0.3,0.1-0.5c0-0.1,0-0.3-0.1-0.4s-0.2-0.3-0.3-0.4
			c-0.1-0.1-0.2-0.2-0.4-0.2c-0.1-0.1-0.3-0.1-0.4-0.1c-0.2,0-0.3,0-0.4,0.1s-0.3,0.1-0.4,0.2s-0.2,0.2-0.2,0.4
			C98.3,461.8,98.3,462,98.3,462.1z"/>
		<path class="st5" d="M103.4,463.9c0-0.1,0-0.1,0.1-0.1l0.1-0.1h0.1c0,0,0.1,0,0.1,0.1s0.1,0.1,0.2,0.2s0.2,0.2,0.4,0.2
			c0.1,0.1,0.3,0.1,0.4,0.1s0.3,0,0.4-0.1s0.3-0.1,0.4-0.2s0.2-0.2,0.2-0.4c0.1-0.1,0.1-0.3,0.1-0.4v-0.1l-0.1,0.1
			c-0.1,0.1-0.3,0.2-0.5,0.3c-0.2,0.1-0.4,0.1-0.6,0.1s-0.4,0-0.6-0.1s-0.4-0.2-0.5-0.3c-0.1-0.1-0.3-0.3-0.3-0.5
			c-0.1-0.2-0.1-0.4-0.1-0.6s0-0.4,0.1-0.6s0.2-0.4,0.3-0.5c0.1-0.1,0.3-0.3,0.5-0.3c0.2-0.1,0.4-0.1,0.6-0.1s0.4,0,0.6,0.1
			s0.4,0.2,0.5,0.3c0,0,0,0,0.1,0.1v-0.2l0,0c0-0.1,0-0.1,0.1-0.1l0.1-0.1c0.1,0,0.1,0,0.1,0.1l0.1,0.1l0,0v2.3c0,0.2,0,0.4-0.1,0.6
			s-0.2,0.4-0.3,0.5c-0.1,0.1-0.3,0.3-0.5,0.3c-0.2,0.1-0.4,0.1-0.6,0.1s-0.4,0-0.6-0.1s-0.4-0.2-0.5-0.3c-0.1-0.1-0.1-0.2-0.2-0.3
			C103.4,464,103.4,464,103.4,463.9z M103.6,462.1c0,0.2,0,0.3,0.1,0.4s0.1,0.3,0.2,0.4s0.2,0.2,0.4,0.2c0.1,0.1,0.3,0.1,0.4,0.1
			s0.3,0,0.4-0.1s0.3-0.1,0.4-0.2s0.2-0.2,0.2-0.4c0.1-0.1,0.1-0.3,0.1-0.5c0-0.1,0-0.3-0.1-0.4s-0.2-0.3-0.3-0.4
			c-0.1-0.1-0.2-0.2-0.4-0.2c-0.1-0.1-0.3-0.1-0.4-0.1s-0.3,0-0.4,0.1s-0.3,0.1-0.4,0.2s-0.2,0.2-0.2,0.4
			C103.6,461.8,103.6,462,103.6,462.1z"/>
		<path class="st5" d="M106.5,463.3v-2.4c0-0.1,0-0.1,0.1-0.1l0.1-0.1c0.1,0,0.1,0,0.1,0.1l0.1,0.1v0.3c0,0,0-0.1,0.1-0.1
			c0.1-0.1,0.3-0.3,0.5-0.3c0.2-0.1,0.4-0.1,0.6-0.1l0,0c0.1,0,0.1,0,0.1,0.1l0.1,0.1c0,0.1,0,0.1-0.1,0.1l-0.1,0.1l0,0
			c-0.2,0-0.3,0-0.4,0.1s-0.3,0.1-0.4,0.2s-0.2,0.2-0.2,0.4c-0.1,0.1-0.1,0.3-0.1,0.4v1.1c0,0.1,0,0.1-0.1,0.1l-0.1,0.1
			c-0.1,0-0.1,0-0.1-0.1C106.5,463.4,106.5,463.4,106.5,463.3z"/>
		<path class="st5" d="M110.8,463.3L110.8,463.3v-0.2l-0.1,0.1c-0.1,0.1-0.3,0.2-0.5,0.3c-0.2,0.1-0.4,0.1-0.6,0.1s-0.4,0-0.6-0.1
			s-0.4-0.2-0.5-0.3c-0.1-0.1-0.3-0.3-0.3-0.5c-0.1-0.2-0.1-0.4-0.1-0.6s0-0.4,0.1-0.6s0.2-0.4,0.3-0.5c0.1-0.1,0.3-0.3,0.5-0.3
			c0.2-0.1,0.4-0.1,0.6-0.1s0.4,0,0.6,0.1s0.4,0.2,0.5,0.3c0.1,0.1,0.3,0.3,0.3,0.5c0.1,0.2,0.1,0.4,0.1,0.6v1.2
			c0,0.1,0,0.1-0.1,0.1l-0.1,0.1c-0.1,0-0.1,0-0.1-0.1C110.8,463.4,110.8,463.4,110.8,463.3z M108.5,462.1c0,0.2,0,0.3,0.1,0.4
			s0.1,0.3,0.2,0.4s0.2,0.2,0.4,0.2c0.1,0.1,0.3,0.1,0.4,0.1c0.2,0,0.3,0,0.4-0.1s0.3-0.1,0.4-0.2s0.2-0.2,0.2-0.4
			c0.1-0.1,0.1-0.3,0.1-0.4V462c0-0.2,0-0.3-0.1-0.4s-0.1-0.3-0.2-0.4s-0.2-0.2-0.4-0.2c-0.1-0.1-0.3-0.1-0.4-0.1
			c-0.2,0-0.3,0-0.4,0.1s-0.3,0.1-0.4,0.2s-0.2,0.2-0.2,0.4C108.5,461.8,108.5,462,108.5,462.1z"/>
		<path class="st5" d="M111.5,464.4v-2.3c0-0.2,0-0.4,0.1-0.6s0.2-0.4,0.3-0.5c0.1-0.1,0.3-0.3,0.5-0.3c0.2-0.1,0.4-0.1,0.6-0.1
			s0.4,0,0.6,0.1s0.4,0.2,0.5,0.3c0.1,0.1,0.3,0.3,0.3,0.5c0.1,0.2,0.1,0.4,0.1,0.6s0,0.4-0.1,0.6s-0.2,0.4-0.3,0.5
			c-0.1,0.1-0.3,0.3-0.5,0.3c-0.2,0.1-0.4,0.1-0.6,0.1s-0.4-0.1-0.7-0.2c-0.2-0.1-0.4-0.2-0.5-0.4v1.3c0,0.1,0,0.1-0.1,0.1l-0.1,0.1
			C111.5,464.5,111.5,464.5,111.5,464.4C111.6,464.5,111.5,464.5,111.5,464.4L111.5,464.4z M111.9,462.1c0,0.2,0,0.3,0.1,0.4
			s0.1,0.3,0.2,0.4s0.2,0.2,0.4,0.2c0.1,0.1,0.3,0.1,0.4,0.1c0.2,0,0.3,0,0.4-0.1s0.3-0.1,0.4-0.2s0.2-0.2,0.2-0.4
			c0.1-0.1,0.1-0.3,0.1-0.4c0-0.2,0-0.3-0.1-0.4s-0.1-0.3-0.2-0.4s-0.2-0.2-0.4-0.2c-0.1-0.1-0.3-0.1-0.4-0.1c-0.2,0-0.3,0-0.4,0.1
			s-0.3,0.1-0.4,0.2s-0.2,0.2-0.2,0.4C112,461.8,111.9,462,111.9,462.1z"/>
		<path class="st5" d="M115,463.3L115,463.3v-3.5c0-0.1,0-0.1,0.1-0.1l0.1-0.1c0.1,0,0.1,0,0.1,0.1l0.1,0.1l0,0v1.2
			c0-0.1,0.1-0.1,0.2-0.2c0.1,0,0.1-0.1,0.2-0.1s0.2-0.1,0.2-0.1c0.1,0,0.2,0,0.2,0c0.2,0,0.3,0,0.5,0.1s0.3,0.2,0.4,0.3
			c0.1,0.1,0.2,0.2,0.3,0.4c0.1,0.2,0.1,0.3,0.1,0.5v1.5l0,0c0,0.1,0,0.1-0.1,0.1l-0.1,0.1c-0.1,0-0.1,0-0.1-0.1l-0.1-0.1v-1.5
			c0-0.1,0-0.2-0.1-0.3c0-0.1-0.1-0.2-0.2-0.3c-0.1-0.1-0.2-0.1-0.3-0.2c-0.1,0-0.2-0.1-0.3-0.1c-0.1,0-0.2,0-0.3,0.1
			c-0.1,0-0.2,0.1-0.3,0.2c-0.1,0.1-0.1,0.2-0.2,0.3c0,0.1-0.1,0.2-0.1,0.3v1.5l0,0c0,0.1,0,0.1-0.1,0.1l-0.1,0.1
			c-0.1,0-0.1,0-0.1-0.1C115.1,463.4,115,463.4,115,463.3z"/>
		<path class="st5" d="M117.9,459.8c0-0.1,0-0.1,0.1-0.2c0,0,0.1-0.1,0.2-0.1s0.1,0,0.2,0.1c0,0,0.1,0.1,0.1,0.2s0,0.1-0.1,0.2
			c0,0-0.1,0.1-0.2,0.1s-0.1,0-0.2-0.1S117.9,459.9,117.9,459.8z M118,460.9c0-0.1,0-0.1,0.1-0.1l0.1-0.1c0.1,0,0.1,0,0.1,0.1
			l0.1,0.1v2.4c0,0.1,0,0.1-0.1,0.1l-0.1,0.1c-0.1,0-0.1,0-0.1-0.1l-0.1-0.1V460.9z"/>
		<path class="st5" d="M121.1,462.8c0-0.1,0.1-0.1,0.1-0.1h0.1c0.1,0,0.1,0,0.1,0.1c0,0,0,0.1,0,0.2s-0.1,0.2-0.2,0.3
			c-0.2,0.2-0.4,0.4-0.5,0.4c-0.2,0.1-0.4,0.1-0.6,0.1s-0.4,0-0.6-0.1s-0.4-0.2-0.5-0.3c-0.1-0.1-0.3-0.3-0.3-0.5
			c-0.1-0.2-0.1-0.4-0.1-0.6s0-0.4,0.1-0.6s0.2-0.4,0.3-0.5c0.1-0.1,0.3-0.3,0.5-0.3c0.2-0.1,0.4-0.1,0.6-0.1s0.4,0,0.6,0.1
			s0.4,0.2,0.5,0.4c0.1,0.1,0.2,0.2,0.2,0.3c0,0.1,0,0.1,0,0.1l-0.1,0.1c-0.1,0-0.1,0-0.2,0l-0.1-0.1c-0.1-0.2-0.3-0.3-0.4-0.4
			c-0.2-0.1-0.3-0.1-0.5-0.1s-0.3,0-0.4,0.1s-0.3,0.1-0.4,0.2s-0.2,0.2-0.2,0.4c-0.1,0.1-0.1,0.3-0.1,0.4c0,0.2,0,0.3,0.1,0.4
			s0.1,0.3,0.2,0.4s0.2,0.2,0.4,0.2c0.1,0.1,0.3,0.1,0.4,0.1c0.2,0,0.3,0,0.5-0.1C120.9,463.1,121,462.9,121.1,462.8z"/>
		<path class="st5" d="M126.9,459.8v2.3c0,0.2,0,0.4-0.1,0.6s-0.2,0.4-0.3,0.5c-0.1,0.1-0.3,0.3-0.5,0.3c-0.2,0.1-0.4,0.1-0.6,0.1
			s-0.4,0-0.6-0.1s-0.4-0.2-0.5-0.3c-0.1-0.1-0.3-0.3-0.3-0.5c-0.1-0.2-0.1-0.4-0.1-0.6s0-0.4,0.1-0.6s0.2-0.4,0.3-0.5
			c0.1-0.1,0.3-0.3,0.5-0.3c0.2-0.1,0.4-0.1,0.6-0.1s0.4,0.1,0.7,0.2c0.2,0.1,0.4,0.2,0.5,0.4v-1.3c0-0.1,0-0.1,0.1-0.1l0.1-0.1
			C126.9,459.7,126.9,459.7,126.9,459.8C126.9,459.7,126.9,459.7,126.9,459.8L126.9,459.8z M126.5,462.1c0-0.2,0-0.3-0.1-0.4
			s-0.1-0.3-0.2-0.4s-0.2-0.2-0.4-0.2c-0.1-0.1-0.3-0.1-0.4-0.1s-0.3,0-0.4,0.1s-0.3,0.1-0.4,0.2s-0.2,0.2-0.2,0.4
			c-0.1,0.1-0.1,0.3-0.1,0.4c0,0.2,0,0.3,0.1,0.4s0.1,0.3,0.2,0.4s0.2,0.2,0.4,0.2c0.1,0.1,0.3,0.1,0.4,0.1s0.3,0,0.4-0.1
			s0.3-0.1,0.4-0.2s0.2-0.2,0.2-0.4C126.5,462.4,126.5,462.3,126.5,462.1z"/>
		<path class="st5" d="M130,462h-2.5v0.1c0,0.2,0,0.3,0.1,0.4s0.1,0.3,0.2,0.4s0.2,0.2,0.4,0.2c0.1,0.1,0.3,0.1,0.4,0.1
			c0.2,0,0.3,0,0.4-0.1c0.1-0.1,0.3-0.1,0.4-0.2c0.1-0.1,0.1-0.1,0.1-0.1s0-0.1,0.1-0.1h0.1c0.1,0,0.1,0,0.1,0.1l0.1,0.1l0,0
			c0,0.1-0.1,0.2-0.2,0.3c-0.1,0.1-0.3,0.3-0.5,0.3c-0.2,0.1-0.4,0.1-0.6,0.1c-0.2,0-0.4,0-0.6-0.1c-0.2-0.1-0.4-0.2-0.5-0.3
			c-0.1-0.1-0.3-0.3-0.3-0.5c-0.1-0.2-0.1-0.4-0.1-0.6s0-0.4,0.1-0.6s0.2-0.4,0.3-0.5c0.1-0.1,0.3-0.3,0.5-0.3
			c0.2-0.1,0.4-0.1,0.6-0.1c0.2,0,0.4,0,0.6,0.1c0.2,0.1,0.4,0.2,0.5,0.3c0.1,0.1,0.3,0.3,0.3,0.5c0,0.1,0.1,0.2,0.1,0.2
			c0,0.1,0,0.2,0,0.2C130.2,462,130.1,462,130,462z M129.5,461.3c-0.1-0.1-0.2-0.2-0.4-0.2c-0.1-0.1-0.3-0.1-0.4-0.1
			c-0.2,0-0.3,0-0.4,0.1c-0.1,0.1-0.3,0.1-0.4,0.2s-0.2,0.2-0.2,0.3h2.1C129.7,461.5,129.6,461.4,129.5,461.3z"/>
		<path class="st5" d="M130.6,462.9c0-0.1,0-0.1,0.1-0.1l0.1-0.1h0.1c0,0,0,0.1,0.1,0.1c0.1,0.2,0.2,0.3,0.3,0.4s0.2,0.1,0.4,0.1
			s0.3,0,0.4-0.1c0.1-0.1,0.1-0.2,0.1-0.3c0-0.1,0-0.2-0.1-0.3c-0.1-0.1-0.1-0.1-0.2-0.2s-0.2-0.1-0.4-0.1c-0.1,0-0.3-0.1-0.4-0.1
			c-0.1-0.1-0.2-0.1-0.3-0.2s-0.1-0.2-0.2-0.4c0-0.1,0-0.2,0.1-0.3c0-0.1,0.1-0.2,0.2-0.3c0.1-0.1,0.2-0.1,0.3-0.2s0.3-0.1,0.4-0.1
			c0.1,0,0.3,0,0.4,0.1c0.1,0,0.2,0.1,0.2,0.1c0.1,0.1,0.1,0.1,0.1,0.1s0,0.1,0.1,0.1v0.1c0,0,0,0.1-0.1,0.1s-0.1,0-0.1,0h-0.1
			c0,0-0.1,0-0.1-0.1s-0.1-0.1-0.2-0.2c-0.1,0-0.2-0.1-0.3-0.1s-0.2,0-0.2,0c-0.1,0-0.2,0.1-0.2,0.2c-0.1,0.1-0.1,0.2-0.1,0.3
			c0,0.1,0.1,0.2,0.1,0.2c0.1,0,0.2,0.1,0.3,0.1s0.2,0.1,0.4,0.1c0.1,0,0.3,0.1,0.4,0.2c0.1,0.1,0.2,0.2,0.3,0.3
			c0.1,0.1,0.1,0.3,0.1,0.4s0,0.2-0.1,0.4c-0.1,0.1-0.1,0.2-0.2,0.3c-0.1,0.1-0.2,0.1-0.3,0.2c-0.1,0-0.2,0.1-0.4,0.1
			c-0.1,0-0.3,0-0.4-0.1c-0.1,0-0.2-0.1-0.3-0.2s-0.2-0.2-0.2-0.3C130.6,463,130.6,463,130.6,462.9L130.6,462.9z"/>
		<path class="st5" d="M132.9,459.8c0-0.1,0-0.1,0.1-0.2c0,0,0.1-0.1,0.2-0.1c0.1,0,0.1,0,0.2,0.1c0,0,0.1,0.1,0.1,0.2
			s0,0.1-0.1,0.2s-0.1,0.1-0.2,0.1c-0.1,0-0.1,0-0.2-0.1C132.9,459.9,132.9,459.9,132.9,459.8z M132.9,460.9c0-0.1,0-0.1,0.1-0.1
			l0.1-0.1c0.1,0,0.1,0,0.1,0.1l0.1,0.1v2.4c0,0.1,0,0.1-0.1,0.1l-0.1,0.1c-0.1,0-0.1,0-0.1-0.1l-0.1-0.1V460.9z"/>
		<path class="st5" d="M133.8,463.9c0-0.1,0-0.1,0.1-0.1l0.1-0.1h0.1c0,0,0.1,0,0.1,0.1s0.1,0.1,0.2,0.2c0.1,0.1,0.2,0.2,0.4,0.2
			c0.1,0.1,0.3,0.1,0.4,0.1c0.2,0,0.3,0,0.4-0.1c0.1-0.1,0.3-0.1,0.4-0.2c0.1-0.1,0.2-0.2,0.2-0.4c0.1-0.1,0.1-0.3,0.1-0.4v-0.1
			l-0.1,0.1c-0.1,0.1-0.3,0.2-0.5,0.3c-0.2,0.1-0.4,0.1-0.6,0.1c-0.2,0-0.4,0-0.6-0.1c-0.2-0.1-0.4-0.2-0.5-0.3
			c-0.1-0.1-0.3-0.3-0.3-0.5c-0.1-0.2-0.1-0.4-0.1-0.6s0-0.4,0.1-0.6s0.2-0.4,0.3-0.5s0.3-0.3,0.5-0.3c0.2-0.1,0.4-0.1,0.6-0.1
			c0.2,0,0.4,0,0.6,0.1c0.2,0.1,0.4,0.2,0.5,0.3c0,0,0,0,0.1,0.1v-0.2l0,0c0-0.1,0-0.1,0.1-0.1l0.1-0.1c0.1,0,0.1,0,0.1,0.1l0.1,0.1
			l0,0v2.3c0,0.2,0,0.4-0.1,0.6s-0.2,0.4-0.3,0.5s-0.3,0.3-0.5,0.3c-0.2,0.1-0.4,0.1-0.6,0.1c-0.2,0-0.4,0-0.6-0.1
			c-0.2-0.1-0.4-0.2-0.5-0.3c-0.1-0.1-0.1-0.2-0.2-0.3C133.8,464,133.8,464,133.8,463.9z M134,462.1c0,0.2,0,0.3,0.1,0.4
			s0.1,0.3,0.2,0.4c0.1,0.1,0.2,0.2,0.4,0.2c0.1,0.1,0.3,0.1,0.4,0.1c0.2,0,0.3,0,0.4-0.1c0.1-0.1,0.3-0.1,0.4-0.2
			c0.1-0.1,0.2-0.2,0.2-0.4c0.1-0.1,0.1-0.3,0.1-0.5c0-0.1,0-0.3-0.1-0.4s-0.2-0.3-0.3-0.4s-0.2-0.2-0.4-0.2
			c-0.1-0.1-0.3-0.1-0.4-0.1c-0.2,0-0.3,0-0.4,0.1c-0.1,0.1-0.3,0.1-0.4,0.2c-0.1,0.1-0.2,0.2-0.2,0.4S134,462,134,462.1z"/>
		<path class="st5" d="M137.1,460.9c0-0.1,0-0.1,0.1-0.1l0.1-0.1c0.1,0,0.1,0,0.1,0.1l0.1,0.1v0.1c0-0.1,0.1-0.1,0.2-0.2
			c0.1-0.1,0.1-0.1,0.2-0.1c0.1,0,0.2-0.1,0.2-0.1c0.1,0,0.2,0,0.3,0c0.2,0,0.3,0,0.5,0.1s0.3,0.2,0.4,0.3c0.1,0.1,0.2,0.2,0.3,0.4
			c0.1,0.2,0.1,0.3,0.1,0.5v1.5c0,0.1,0,0.1-0.1,0.1l-0.1,0.1c-0.1,0-0.1,0-0.1-0.1l-0.1-0.1v-1.5c0-0.1,0-0.2-0.1-0.3
			c0-0.1-0.1-0.2-0.2-0.3c-0.1-0.1-0.2-0.1-0.3-0.2c-0.1,0-0.2-0.1-0.3-0.1s-0.2,0-0.3,0.1c-0.1,0-0.2,0.1-0.3,0.2s-0.1,0.2-0.2,0.3
			c0,0.1-0.1,0.2-0.1,0.3v1.5c0,0.1,0,0.1-0.1,0.1l-0.1,0.1c-0.1,0-0.1,0-0.1-0.1l-0.1-0.1L137.1,460.9L137.1,460.9z"/>
	</g>
	<rect x="20.2" y="430.9" class="st24" width="119.4" height="0.3"/>
	<rect x="20.2" y="471.5" class="st24" width="119.4" height="0.3"/>
	<path class="st5" d="M90.6,454.5v-0.2c0.8,0,1.7-0.2,2.4-0.5c0.7-0.3,1.4-0.8,2-1.3c0.6-0.6,1-1.2,1.3-2c0.3-0.7,0.5-1.6,0.5-2.4
		v-8.4c0-0.3-0.1-0.6-0.4-0.9c-0.2-0.2-0.6-0.4-0.9-0.4s-0.6,0.1-0.9,0.4l-0.1-0.1c0.3-0.3,0.6-0.4,1-0.4s0.7,0.1,1,0.4
		s0.4,0.6,0.4,1v8.4c0,0.9-0.2,1.7-0.5,2.5s-0.8,1.4-1.3,2c-0.6,0.6-1.2,1-2,1.4C92.3,454.3,91.4,454.5,90.6,454.5z"/>
	<path class="st5" d="M102.8,454.5c-0.9,0-1.7-0.2-2.5-0.5s-1.4-0.8-2-1.3l0.1-0.1c0.6,0.6,1.2,1,2,1.3c0.7,0.3,1.6,0.5,2.4,0.5
		s1.7-0.2,2.4-0.5c0.7-0.3,1.4-0.8,2-1.3c0.6-0.6,0.9-1.1,1-1.5l0,0V451c0-0.3-0.1-0.6-0.4-0.9l0.1-0.1c0.3,0.3,0.4,0.6,0.4,1v0.2
		c0,0.4-0.4,0.9-1,1.6c-0.6,0.6-1.2,1-2,1.4C104.5,454.3,103.7,454.5,102.8,454.5z M108.6,448.1l-0.1-0.1c0.2-0.2,0.4-0.6,0.3-1.2
		c0-0.1-0.1-0.4-0.3-0.9l0,0c-0.3-0.7-0.8-1.4-1.3-2c-0.6-0.6-1.2-1-2-1.3c-0.7-0.3-1.6-0.5-2.4-0.5s-1.7,0.2-2.4,0.5l-0.1-0.1
		c0.8-0.3,1.6-0.5,2.5-0.5s1.7,0.2,2.5,0.5s1.4,0.8,2,1.4s1,1.2,1.3,2l0,0c0.2,0.6,0.3,0.8,0.3,1
		C109.1,447.4,108.8,447.8,108.6,448.1z"/>
	<path class="st24" d="M39.4,438.7c0,0,17,9.1,17,20.4c0,3.1-2.5,5.7-5.7,5.7s-5.7-2.5-5.7-5.7C45.1,453.5,50.7,454.9,39.4,438.7
		 M38.5,437.8l0.7,1c8.3,11.9,7.4,14.1,6.4,16.7c-0.4,1-0.8,2-0.8,3.5c0,3.3,2.7,6,6,6s6-2.7,6-6c0-2.6-0.9-5.4-2.7-8.1
		c-1.4-2.2-3.4-4.4-5.9-6.6c-4.2-3.7-8.5-6-8.5-6L38.5,437.8L38.5,437.8z"/>
	<path class="st24" d="M50.7,454.9c2.3,0,4.2,1.9,4.2,4.2c0,2.3-1.9,4.2-4.2,4.2s-4.2-1.9-4.2-4.2S48.4,454.9,50.7,454.9
		 M50.7,454.6c-2.5,0-4.5,2-4.5,4.5s2,4.5,4.5,4.5s4.5-2,4.5-4.5S53.2,454.6,50.7,454.6L50.7,454.6z"/>
	<path class="st24" d="M38.4,454c2.8,0,5.1,2.3,5.1,5.1s-2.3,5.1-5.1,5.1s-5.1-2.3-5.1-5.1S35.6,454,38.4,454 M38.4,453.7
		c-3,0-5.4,2.4-5.4,5.4s2.4,5.4,5.4,5.4s5.4-2.4,5.4-5.4S41.4,453.7,38.4,453.7L38.4,453.7z"/>
	<path class="st24" d="M37.5,438.7c-11.3,16.2-5.7,14.8-5.7,20.4c0,3.1-2.5,5.7-5.7,5.7s-5.7-2.5-5.7-5.7
		C20.5,447.8,37.5,438.7,37.5,438.7 M38.4,437.8l-1.1,0.6c0,0-4.3,2.3-8.5,6c-2.5,2.2-4.5,4.4-5.9,6.6c-1.8,2.8-2.7,5.5-2.7,8.1
		c0,3.3,2.7,6,6,6s6-2.7,6-6c0-1.5-0.4-2.5-0.8-3.5c-1-2.6-1.9-4.9,6.4-16.7L38.4,437.8L38.4,437.8z"/>
	<path class="st24" d="M26.2,454.9c2.3,0,4.2,1.9,4.2,4.2c0,2.3-1.9,4.2-4.2,4.2s-4.2-1.9-4.2-4.2C21.9,456.8,23.8,454.9,26.2,454.9
		 M26.2,454.6c-2.5,0-4.5,2-4.5,4.5s2,4.5,4.5,4.5s4.5-2,4.5-4.5S28.7,454.6,26.2,454.6L26.2,454.6z"/>
	<g>
		<path class="st5" d="M63.9,453L63.9,453v-13.3c0-0.2,0.1-0.4,0.2-0.5s0.3-0.2,0.5-0.2s0.4,0.1,0.5,0.2s0.2,0.3,0.2,0.5v0.1v4.2
			c0.2-0.2,0.4-0.4,0.6-0.6s0.5-0.3,0.8-0.4s0.6-0.2,0.9-0.3c0.3-0.1,0.6-0.1,0.9-0.1c0.6,0,1.2,0.1,1.8,0.4c0.6,0.2,1,0.6,1.5,1
			c0.4,0.4,0.7,0.9,1,1.5c0.2,0.6,0.4,1.1,0.4,1.8v5.8v0.1c0,0.2-0.1,0.4-0.2,0.5s-0.3,0.2-0.5,0.2s-0.4-0.1-0.5-0.2
			s-0.2-0.3-0.2-0.5v-5.9c0-0.4-0.1-0.8-0.3-1.2c-0.2-0.4-0.4-0.7-0.7-1c-0.3-0.3-0.6-0.5-1-0.7s-0.8-0.2-1.2-0.2
			c-0.4,0-0.8,0.1-1.2,0.3c-0.4,0.2-0.7,0.4-1,0.7c-0.3,0.3-0.5,0.6-0.7,1s-0.3,0.8-0.3,1.2v5.8v0.1c0,0.2-0.1,0.4-0.2,0.5
			s-0.3,0.2-0.5,0.2s-0.4-0.1-0.5-0.2C64,453.4,63.9,453.2,63.9,453z"/>
		<path class="st5" d="M78.5,456.6L78.5,456.6v-2.9c-0.4-0.1-0.7-0.2-1.1-0.3c-0.6-0.2-1-0.6-1.5-1c-0.4-0.4-0.7-0.9-1-1.5
			c-0.2-0.6-0.4-1.1-0.4-1.8v-5.4c0-0.2,0.1-0.4,0.2-0.5s0.3-0.2,0.5-0.2s0.4,0.1,0.5,0.2s0.2,0.3,0.2,0.5v5.4
			c0,0.4,0.1,0.8,0.3,1.2c0.2,0.4,0.4,0.7,0.7,1c0.3,0.3,0.6,0.5,1,0.7s0.8,0.2,1.2,0.2c0.4,0,0.8-0.1,1.2-0.2
			c0.4-0.2,0.7-0.4,1-0.7c0.3-0.3,0.5-0.6,0.7-1s0.2-0.8,0.2-1.2v-4.8v-0.5c0-0.2,0.1-0.4,0.2-0.5s0.3-0.2,0.5-0.2s0.4,0.1,0.5,0.2
			s0.2,0.3,0.2,0.5v0.5v4.8c0,0.6-0.1,1.2-0.4,1.8c-0.2,0.6-0.6,1-1,1.5c-0.4,0.4-0.9,0.7-1.5,1c-0.3,0.1-0.7,0.3-1.1,0.3v2.8v0.1
			c0,0.2-0.1,0.4-0.2,0.5s-0.3,0.2-0.5,0.2s-0.4-0.1-0.5-0.2C78.6,457,78.5,456.8,78.5,456.6z"/>
		<path class="st5" d="M96.2,439.8v8.4c0,0.8-0.1,1.5-0.4,2.2s-0.7,1.3-1.2,1.8s-1.1,0.9-1.8,1.2c-0.7,0.3-1.4,0.4-2.2,0.4
			c-0.8,0-1.5-0.1-2.2-0.4s-1.3-0.7-1.8-1.2s-0.9-1.1-1.2-1.8c-0.3-0.7-0.4-1.4-0.4-2.2c0-0.8,0.1-1.5,0.4-2.2s0.7-1.3,1.2-1.8
			s1.1-0.9,1.8-1.2c0.7-0.3,1.4-0.4,2.2-0.4c0.8,0,1.6,0.2,2.4,0.6s1.4,0.9,1.8,1.3v-4.8c0-0.2,0.1-0.4,0.2-0.5s0.3-0.2,0.5-0.2
			s0.4,0.1,0.5,0.2C96.1,439.4,96.2,439.6,96.2,439.8L96.2,439.8z M94.7,448.2c0-0.6-0.1-1.1-0.3-1.6c-0.2-0.5-0.5-1-0.9-1.3
			c-0.4-0.4-0.8-0.7-1.3-0.9c-0.5-0.2-1-0.3-1.6-0.3s-1.1,0.1-1.6,0.3c-0.5,0.2-1,0.5-1.3,0.9c-0.4,0.4-0.7,0.8-0.9,1.3
			c-0.2,0.5-0.3,1-0.3,1.6s0.1,1.1,0.3,1.6c0.2,0.5,0.5,1,0.9,1.3c0.4,0.4,0.8,0.7,1.3,0.9c0.5,0.2,1,0.3,1.6,0.3s1.1-0.1,1.6-0.3
			c0.5-0.2,1-0.5,1.3-0.9c0.4-0.4,0.7-0.8,0.9-1.3C94.6,449.3,94.7,448.7,94.7,448.2z"/>
		<path class="st5" d="M107.5,447.8h-8.9c0,0.1,0,0.3,0,0.4c0,0.6,0.1,1.1,0.3,1.6c0.2,0.5,0.5,1,0.9,1.3c0.4,0.4,0.8,0.7,1.3,0.9
			c0.5,0.2,1,0.3,1.6,0.3s1.1-0.1,1.6-0.3c0.5-0.2,1-0.5,1.3-0.9c0.2-0.2,0.4-0.4,0.4-0.5c0.1-0.1,0.2-0.2,0.3-0.3
			c0.1-0.1,0.2-0.1,0.4-0.1c0.2,0,0.4,0.1,0.5,0.2s0.2,0.3,0.2,0.5v0.1c0,0.3-0.3,0.6-0.8,1.1s-1.1,0.9-1.8,1.2
			c-0.7,0.3-1.4,0.4-2.2,0.4c-0.8,0-1.5-0.1-2.2-0.4s-1.3-0.7-1.8-1.2s-0.9-1.1-1.2-1.8c-0.3-0.7-0.4-1.4-0.4-2.2
			c0-0.8,0.1-1.5,0.4-2.2s0.7-1.3,1.2-1.8s1.1-0.9,1.8-1.2c0.7-0.3,1.4-0.4,2.2-0.4c0.8,0,1.5,0.1,2.2,0.4s1.3,0.7,1.8,1.2
			s0.9,1.1,1.2,1.8c0.2,0.4,0.3,0.7,0.3,0.9c0.1,0.3,0,0.6-0.1,0.7C108,447.7,107.8,447.8,107.5,447.8z M105.8,445.2
			c-0.4-0.4-0.8-0.7-1.3-0.9c-0.5-0.2-1-0.3-1.6-0.3s-1.1,0.1-1.6,0.3c-0.5,0.2-1,0.5-1.3,0.9c-0.3,0.3-0.6,0.7-0.8,1.1h7.5
			C106.3,445.9,106.1,445.6,105.8,445.2z"/>
		<path class="st5" d="M108.8,450.9c0-0.2,0.1-0.4,0.2-0.5s0.3-0.2,0.5-0.2c0.1,0,0.3,0,0.4,0.1s0.2,0.2,0.2,0.3
			c0.3,0.7,0.7,1.1,1.1,1.4s0.9,0.4,1.5,0.4c0.7,0,1.2-0.2,1.5-0.5s0.5-0.7,0.5-1.1c0-0.5-0.1-0.8-0.3-1.1c-0.2-0.3-0.5-0.5-0.8-0.6
			c-0.4-0.2-0.8-0.3-1.3-0.4s-1-0.3-1.5-0.5c-0.4-0.2-0.8-0.5-1.2-0.9c-0.3-0.4-0.5-0.9-0.6-1.4c-0.1-0.4,0-0.9,0.2-1.2
			c0.2-0.4,0.4-0.7,0.7-1c0.3-0.3,0.7-0.5,1.1-0.7s0.9-0.3,1.4-0.3s1,0.1,1.4,0.3c0.4,0.2,0.7,0.4,0.9,0.5c0.2,0.2,0.3,0.3,0.4,0.4
			s0.2,0.3,0.2,0.4s0,0.3,0,0.4s-0.1,0.2-0.2,0.3c-0.1,0.1-0.2,0.1-0.4,0.1c-0.1,0-0.3,0-0.4-0.1s-0.2-0.2-0.3-0.4
			c-0.1-0.2-0.3-0.4-0.6-0.5c-0.3-0.1-0.6-0.2-1-0.2c-0.3,0-0.6,0.1-0.9,0.2s-0.6,0.3-0.9,0.7c-0.3,0.3-0.4,0.7-0.3,1
			s0.2,0.6,0.5,0.8c0.3,0.2,0.6,0.3,1,0.5c0.4,0.1,0.9,0.3,1.4,0.5s1,0.4,1.4,0.7c0.4,0.3,0.8,0.6,1,1s0.4,0.9,0.4,1.6
			c0,0.5-0.1,0.9-0.3,1.3c-0.2,0.4-0.5,0.7-0.8,1s-0.7,0.5-1.2,0.6c-0.4,0.1-0.9,0.2-1.4,0.2s-0.9-0.1-1.4-0.3
			c-0.5-0.2-0.9-0.4-1.2-0.7c-0.3-0.3-0.6-0.6-0.8-0.9c-0.2-0.3-0.3-0.5-0.3-0.6C108.9,451.1,108.8,451,108.8,450.9z"/>
		<path class="st5" d="M117.3,443.8c0-0.2,0.1-0.4,0.2-0.5s0.3-0.2,0.5-0.2s0.4,0.1,0.5,0.2s0.2,0.3,0.2,0.5v9.2
			c0,0.2-0.1,0.4-0.2,0.5s-0.3,0.2-0.5,0.2s-0.4-0.1-0.5-0.2s-0.2-0.3-0.2-0.5V443.8z"/>
		<path class="st5" d="M121.6,453.8c0.4,1.1,1.4,2.2,2.9,2.2c1.8,0,3.2-1.9,3.2-3.9c0,0-0.9,0.9-1.4,1.2c-0.6,0.3-1.1,0.4-1.8,0.4
			c-0.6,0-1.2-0.1-1.8-0.4c-0.6-0.3-1-0.7-1.4-1.2s-0.7-1.1-1-1.8c-0.2-0.7-0.4-1.4-0.4-2.2c0-0.8,0.1-1.5,0.4-2.2
			c0.2-0.7,0.6-1.3,1-1.8s0.9-0.9,1.4-1.2c0.6-0.3,1.1-0.4,1.8-0.4c0.6,0,1.2,0.1,1.8,0.4c0.6,0.3,1,0.7,1.4,1.2
			c0.1,0.1,0.1,0.1,0.2,0.2v-0.6v-0.1c0-0.2,0.1-0.4,0.2-0.5c0.1-0.1,0.3-0.2,0.4-0.2c0.2,0,0.3,0.1,0.4,0.2
			c0.1,0.1,0.2,0.3,0.2,0.5v0.1v7.2c0,5.8-3.6,6.3-4.5,6.3c-0.6,0-2.6-0.2-4-2.6C120,453.8,121.2,453.2,121.6,453.8z M124.5,444
			c-1.7,0-3.1,1.9-3.1,4.2c0,2.3,1.4,4.2,3.1,4.2s3.1-1.9,3.1-4.2S126.2,444,124.5,444z"/>
		<path class="st5" d="M130.6,443.8c0-0.2,0.1-0.4,0.2-0.5c0.1-0.1,0.3-0.2,0.5-0.2s0.4,0.1,0.5,0.2s0.2,0.3,0.2,0.5v0.2
			c0.1-0.2,0.3-0.4,0.5-0.6s0.5-0.3,0.8-0.5c0.3-0.1,0.6-0.2,0.9-0.3c0.3-0.1,0.6-0.1,0.9-0.1c0.6,0,1.2,0.1,1.8,0.4
			c0.6,0.2,1,0.6,1.5,1c0.4,0.4,0.7,0.9,1,1.5c0.2,0.6,0.4,1.2,0.3,1.8v5.8c0,0.2-0.1,0.4-0.2,0.5c-0.1,0.1-0.3,0.2-0.5,0.2
			s-0.4-0.1-0.5-0.2s-0.2-0.3-0.2-0.5v-5.8c0-0.4-0.1-0.8-0.2-1.2c-0.2-0.4-0.4-0.7-0.7-1s-0.6-0.5-1-0.7s-0.8-0.2-1.2-0.2
			s-0.8,0.1-1.2,0.3c-0.4,0.2-0.7,0.4-1,0.7c-0.3,0.3-0.5,0.6-0.7,1c-0.1,0.3-0.2,0.7-0.2,1v6c0,0.2-0.1,0.4-0.2,0.5
			c-0.1,0.1-0.3,0.2-0.5,0.2s-0.4-0.1-0.5-0.2s-0.2-0.3-0.2-0.5v-9.3H130.6z"/>
	</g>
	<g>
		<path class="st5" d="M66.6,463.3L66.6,463.3v-0.2l-0.1,0.1c-0.1,0.1-0.3,0.2-0.5,0.3c-0.2,0.1-0.4,0.1-0.6,0.1s-0.4,0-0.6-0.1
			s-0.4-0.2-0.5-0.3c-0.1-0.1-0.3-0.3-0.3-0.5c-0.1-0.2-0.1-0.4-0.1-0.6s0-0.4,0.1-0.6s0.2-0.4,0.3-0.5c0.1-0.1,0.3-0.3,0.5-0.3
			c0.2-0.1,0.4-0.1,0.6-0.1s0.4,0,0.6,0.1s0.4,0.2,0.5,0.3c0.1,0.1,0.3,0.3,0.3,0.5c0.1,0.2,0.1,0.4,0.1,0.6v1.2
			c0,0.1,0,0.1-0.1,0.1l-0.1,0.1c-0.1,0-0.1,0-0.1-0.1C66.6,463.4,66.6,463.4,66.6,463.3z M64.3,462.1c0,0.2,0,0.3,0.1,0.4
			s0.1,0.3,0.2,0.4s0.2,0.2,0.4,0.2c0.1,0.1,0.3,0.1,0.4,0.1c0.2,0,0.3,0,0.4-0.1s0.3-0.1,0.4-0.2s0.2-0.2,0.2-0.4
			c0.1-0.1,0.1-0.3,0.1-0.4V462c0-0.2,0-0.3-0.1-0.4s-0.1-0.3-0.2-0.4S66,461,65.8,461c-0.1-0.1-0.3-0.1-0.4-0.1
			c-0.2,0-0.3,0-0.4,0.1s-0.3,0.1-0.4,0.2s-0.2,0.2-0.2,0.4C64.3,461.8,64.3,462,64.3,462.1z"/>
		<path class="st5" d="M67.2,460.9c0-0.1,0-0.1,0.1-0.1l0.1-0.1c0.1,0,0.1,0,0.1,0.1l0.1,0.1v1.5c0,0.1,0,0.2,0.1,0.3
			c0,0.1,0.1,0.2,0.2,0.3c0.1,0.1,0.2,0.1,0.3,0.2c0.1,0,0.2,0.1,0.3,0.1c0.1,0,0.2,0,0.3-0.1c0.1,0,0.2-0.1,0.3-0.2
			c0.1-0.1,0.1-0.2,0.2-0.3c0-0.1,0.1-0.2,0.1-0.3v-1.5c0-0.1,0-0.1,0.1-0.1l0.1-0.1c0.1,0,0.1,0,0.1,0.1l0.1,0.1v1.5
			c0,0.1,0,0.2,0.1,0.3c0,0.1,0.1,0.2,0.2,0.3c0.1,0.1,0.2,0.1,0.3,0.2c0.1,0,0.2,0.1,0.3,0.1c0.1,0,0.2,0,0.3-0.1
			c0.1,0,0.2-0.1,0.3-0.2c0.1-0.1,0.1-0.2,0.2-0.3c0-0.1,0.1-0.2,0.1-0.3v-1.5c0-0.1,0-0.1,0.1-0.1l0.1-0.1c0.1,0,0.1,0,0.1,0.1
			l0.1,0.1v1.5c0,0.2,0,0.3-0.1,0.5s-0.2,0.3-0.3,0.4c-0.1,0.1-0.3,0.2-0.4,0.3c-0.2,0.1-0.3,0.1-0.5,0.1s-0.4-0.1-0.6-0.2
			s-0.3-0.2-0.4-0.4c-0.1,0.2-0.3,0.3-0.5,0.4s-0.4,0.2-0.6,0.2s-0.3,0-0.5-0.1s-0.3-0.2-0.4-0.3c-0.1-0.1-0.2-0.2-0.3-0.4
			c-0.1-0.2-0.1-0.3-0.1-0.5L67.2,460.9L67.2,460.9z"/>
		<path class="st5" d="M74.8,463.3L74.8,463.3v-0.2l-0.1,0.1c-0.1,0.1-0.3,0.2-0.5,0.3c-0.2,0.1-0.4,0.1-0.6,0.1s-0.4,0-0.6-0.1
			s-0.4-0.2-0.5-0.3c-0.1-0.1-0.3-0.3-0.3-0.5c-0.1-0.2-0.1-0.4-0.1-0.6s0-0.4,0.1-0.6s0.2-0.4,0.3-0.5c0.1-0.1,0.3-0.3,0.5-0.3
			c0.2-0.1,0.4-0.1,0.6-0.1s0.4,0,0.6,0.1s0.4,0.2,0.5,0.3c0.1,0.1,0.3,0.3,0.3,0.5c0.1,0.2,0.1,0.4,0.1,0.6v1.2
			c0,0.1,0,0.1-0.1,0.1l-0.1,0.1c-0.1,0-0.1,0-0.1-0.1C74.8,463.4,74.8,463.4,74.8,463.3z M72.5,462.1c0,0.2,0,0.3,0.1,0.4
			s0.1,0.3,0.2,0.4s0.2,0.2,0.4,0.2c0.1,0.1,0.3,0.1,0.4,0.1c0.2,0,0.3,0,0.4-0.1s0.3-0.1,0.4-0.2s0.2-0.2,0.2-0.4
			c0.1-0.1,0.1-0.3,0.1-0.4V462c0-0.2,0-0.3-0.1-0.4s-0.1-0.3-0.2-0.4S74.2,461,74,461c-0.1-0.1-0.3-0.1-0.4-0.1
			c-0.2,0-0.3,0-0.4,0.1s-0.3,0.1-0.4,0.2s-0.2,0.2-0.2,0.4C72.5,461.8,72.5,462,72.5,462.1z"/>
		<path class="st5" d="M75.6,463.3v-2.4c0-0.1,0-0.1,0.1-0.1l0.1-0.1c0.1,0,0.1,0,0.1,0.1l0.1,0.1v0.3c0,0,0-0.1,0.1-0.1
			c0.1-0.1,0.3-0.3,0.5-0.3c0.2-0.1,0.4-0.1,0.6-0.1l0,0c0.1,0,0.1,0,0.1,0.1l0.1,0.1c0,0.1,0,0.1-0.1,0.1l-0.1,0.1l0,0
			c-0.2,0-0.3,0-0.4,0.1s-0.3,0.1-0.4,0.2s-0.2,0.2-0.2,0.4c-0.1,0.1-0.1,0.3-0.1,0.4v1.1c0,0.1,0,0.1-0.1,0.1l-0.1,0.1
			c-0.1,0-0.1,0-0.1-0.1C75.6,463.4,75.6,463.4,75.6,463.3z"/>
		<path class="st5" d="M80.3,459.8v2.3c0,0.2,0,0.4-0.1,0.6s-0.2,0.4-0.3,0.5c-0.1,0.1-0.3,0.3-0.5,0.3c-0.2,0.1-0.4,0.1-0.6,0.1
			s-0.4,0-0.6-0.1s-0.4-0.2-0.5-0.3c-0.1-0.1-0.3-0.3-0.3-0.5c-0.1-0.2-0.1-0.4-0.1-0.6s0-0.4,0.1-0.6s0.2-0.4,0.3-0.5
			c0.1-0.1,0.3-0.3,0.5-0.3c0.2-0.1,0.4-0.1,0.6-0.1s0.4,0.1,0.7,0.2c0.2,0.1,0.4,0.2,0.5,0.4v-1.3c0-0.1,0-0.1,0.1-0.1l0.1-0.1
			C80.3,459.7,80.3,459.7,80.3,459.8C80.3,459.7,80.3,459.7,80.3,459.8L80.3,459.8z M79.9,462.1c0-0.2,0-0.3-0.1-0.4
			s-0.1-0.3-0.2-0.4s-0.2-0.2-0.4-0.2c-0.1-0.1-0.3-0.1-0.4-0.1s-0.3,0-0.4,0.1s-0.3,0.1-0.4,0.2s-0.2,0.2-0.2,0.4
			c-0.1,0.1-0.1,0.3-0.1,0.4c0,0.2,0,0.3,0.1,0.4s0.1,0.3,0.2,0.4s0.2,0.2,0.4,0.2c0.1,0.1,0.3,0.1,0.4,0.1s0.3,0,0.4-0.1
			s0.3-0.1,0.4-0.2s0.2-0.2,0.2-0.4C79.9,462.4,79.9,462.3,79.9,462.1z"/>
		<path class="st5" d="M82.6,460.9c0-0.1,0-0.1,0.1-0.1l0.1-0.1c0.1,0,0.1,0,0.1,0.1l0.1,0.1v1.5c0,0.1,0,0.2,0.1,0.3
			c0,0.1,0.1,0.2,0.2,0.3c0.1,0.1,0.2,0.1,0.3,0.2c0.1,0,0.2,0.1,0.3,0.1c0.1,0,0.2,0,0.3-0.1c0.1,0,0.2-0.1,0.3-0.2
			c0.1-0.1,0.1-0.2,0.2-0.3c0-0.1,0.1-0.2,0.1-0.3v-1.5c0-0.1,0-0.1,0.1-0.1l0.1-0.1c0.1,0,0.1,0,0.1,0.1l0.1,0.1v1.5
			c0,0.1,0,0.2,0.1,0.3c0,0.1,0.1,0.2,0.2,0.3c0.1,0.1,0.2,0.1,0.3,0.2c0.1,0,0.2,0.1,0.3,0.1c0.1,0,0.2,0,0.3-0.1
			c0.1,0,0.2-0.1,0.3-0.2c0.1-0.1,0.1-0.2,0.2-0.3c0-0.1,0.1-0.2,0.1-0.3v-1.5c0-0.1,0-0.1,0.1-0.1l0.1-0.1c0.1,0,0.1,0,0.1,0.1
			l0.1,0.1v1.5c0,0.2,0,0.3-0.1,0.5s-0.2,0.3-0.3,0.4c-0.1,0.1-0.3,0.2-0.4,0.3c-0.2,0.1-0.3,0.1-0.5,0.1s-0.4-0.1-0.6-0.2
			s-0.3-0.2-0.4-0.4c-0.1,0.2-0.3,0.3-0.5,0.4s-0.4,0.2-0.6,0.2s-0.3,0-0.5-0.1s-0.3-0.2-0.4-0.3c-0.1-0.1-0.2-0.2-0.3-0.4
			c-0.1-0.2-0.1-0.3-0.1-0.5L82.6,460.9L82.6,460.9z"/>
		<path class="st5" d="M87.6,459.8c0-0.1,0-0.1,0.1-0.2c0,0,0.1-0.1,0.2-0.1s0.1,0,0.2,0.1c0,0,0.1,0.1,0.1,0.2s0,0.1-0.1,0.2
			c0,0-0.1,0.1-0.2,0.1s-0.1,0-0.2-0.1S87.6,459.9,87.6,459.8z M87.6,460.9c0-0.1,0-0.1,0.1-0.1l0.1-0.1c0.1,0,0.1,0,0.1,0.1
			l0.1,0.1v2.4c0,0.1,0,0.1-0.1,0.1l-0.1,0.1c-0.1,0-0.1,0-0.1-0.1l-0.1-0.1V460.9z"/>
		<path class="st5" d="M88.4,460.9c0-0.1,0-0.1,0.1-0.1l0.1-0.1c0.1,0,0.1,0,0.1,0.1l0.1,0.1v0.1c0-0.1,0.1-0.1,0.2-0.2
			s0.1-0.1,0.2-0.1s0.2-0.1,0.2-0.1c0.1,0,0.2,0,0.3,0c0.2,0,0.3,0,0.5,0.1s0.3,0.2,0.4,0.3c0.1,0.1,0.2,0.2,0.3,0.4
			c0.1,0.2,0.1,0.3,0.1,0.5v1.5c0,0.1,0,0.1-0.1,0.1l-0.1,0.1c-0.1,0-0.1,0-0.1-0.1l-0.1-0.1v-1.5c0-0.1,0-0.2-0.1-0.3
			c0-0.1-0.1-0.2-0.2-0.3c-0.1-0.1-0.2-0.1-0.3-0.2c-0.1,0-0.2-0.1-0.3-0.1c-0.1,0-0.2,0-0.3,0.1c-0.1,0-0.2,0.1-0.3,0.2
			c-0.1,0.1-0.1,0.2-0.2,0.3c0,0.1-0.1,0.2-0.1,0.3v1.5c0,0.1,0,0.1-0.1,0.1l-0.1,0.1c-0.1,0-0.1,0-0.1-0.1l-0.1-0.1V460.9z"/>
		<path class="st5" d="M91.3,460.9c0-0.1,0-0.1,0.1-0.1l0.1-0.1c0.1,0,0.1,0,0.1,0.1l0.1,0.1v0.1c0-0.1,0.1-0.1,0.2-0.2
			s0.1-0.1,0.2-0.1s0.2-0.1,0.2-0.1c0.1,0,0.2,0,0.3,0c0.2,0,0.3,0,0.5,0.1s0.3,0.2,0.4,0.3c0.1,0.1,0.2,0.2,0.3,0.4
			c0.1,0.2,0.1,0.3,0.1,0.5v1.5c0,0.1,0,0.1-0.1,0.1l-0.1,0.1c-0.1,0-0.1,0-0.1-0.1l-0.1-0.1v-1.5c0-0.1,0-0.2-0.1-0.3
			c0-0.1-0.1-0.2-0.2-0.3c-0.1-0.1-0.2-0.1-0.3-0.2c-0.1,0-0.2-0.1-0.3-0.1c-0.1,0-0.2,0-0.3,0.1c-0.1,0-0.2,0.1-0.3,0.2
			c-0.1,0.1-0.1,0.2-0.2,0.3c0,0.1-0.1,0.2-0.1,0.3v1.5c0,0.1,0,0.1-0.1,0.1l-0.1,0.1c-0.1,0-0.1,0-0.1-0.1l-0.1-0.1V460.9z"/>
		<path class="st5" d="M94.2,459.8c0-0.1,0-0.1,0.1-0.2c0,0,0.1-0.1,0.2-0.1s0.1,0,0.2,0.1c0,0,0.1,0.1,0.1,0.2s0,0.1-0.1,0.2
			c0,0-0.1,0.1-0.2,0.1s-0.1,0-0.2-0.1S94.2,459.9,94.2,459.8z M94.2,460.9c0-0.1,0-0.1,0.1-0.1l0.1-0.1c0.1,0,0.1,0,0.1,0.1
			l0.1,0.1v2.4c0,0.1,0,0.1-0.1,0.1l-0.1,0.1c-0.1,0-0.1,0-0.1-0.1l-0.1-0.1V460.9z"/>
		<path class="st5" d="M95,460.9c0-0.1,0-0.1,0.1-0.1l0.1-0.1c0.1,0,0.1,0,0.1,0.1l0.1,0.1v0.1c0-0.1,0.1-0.1,0.2-0.2
			s0.1-0.1,0.2-0.1s0.2-0.1,0.2-0.1c0.1,0,0.2,0,0.3,0c0.2,0,0.3,0,0.5,0.1s0.3,0.2,0.4,0.3c0.1,0.1,0.2,0.2,0.3,0.4
			c0.1,0.2,0.1,0.3,0.1,0.5v1.5c0,0.1,0,0.1-0.1,0.1l-0.1,0.1c-0.1,0-0.1,0-0.1-0.1l-0.1-0.1v-1.5c0-0.1,0-0.2-0.1-0.3
			c0-0.1-0.1-0.2-0.2-0.3c-0.1-0.1-0.2-0.1-0.3-0.2c-0.1,0-0.2-0.1-0.3-0.1c-0.1,0-0.2,0-0.3,0.1c-0.1,0-0.2,0.1-0.3,0.2
			c-0.1,0.1-0.1,0.2-0.2,0.3c0,0.1-0.1,0.2-0.1,0.3v1.5c0,0.1,0,0.1-0.1,0.1l-0.1,0.1c-0.1,0-0.1,0-0.1-0.1l-0.1-0.1V460.9z"/>
		<path class="st5" d="M98.1,463.9c0-0.1,0-0.1,0.1-0.1l0.1-0.1h0.1c0,0,0.1,0,0.1,0.1s0.1,0.1,0.2,0.2s0.2,0.2,0.4,0.2
			c0.1,0.1,0.3,0.1,0.4,0.1c0.2,0,0.3,0,0.4-0.1s0.3-0.1,0.4-0.2s0.2-0.2,0.2-0.4c0.1-0.1,0.1-0.3,0.1-0.4v-0.1l-0.1,0.1
			c-0.1,0.1-0.3,0.2-0.5,0.3c-0.2,0.1-0.4,0.1-0.6,0.1s-0.4,0-0.6-0.1s-0.4-0.2-0.5-0.3c-0.1-0.1-0.3-0.3-0.3-0.5
			c-0.1-0.2-0.1-0.4-0.1-0.6s0-0.4,0.1-0.6s0.2-0.4,0.3-0.5c0.1-0.1,0.3-0.3,0.5-0.3c0.2-0.1,0.4-0.1,0.6-0.1s0.4,0,0.6,0.1
			s0.4,0.2,0.5,0.3c0,0,0,0,0.1,0.1v-0.2l0,0c0-0.1,0-0.1,0.1-0.1l0.1-0.1c0.1,0,0.1,0,0.1,0.1l0.1,0.1l0,0v2.3c0,0.2,0,0.4-0.1,0.6
			s-0.2,0.4-0.3,0.5c-0.1,0.1-0.3,0.3-0.5,0.3c-0.2,0.1-0.4,0.1-0.6,0.1s-0.4,0-0.6-0.1s-0.4-0.2-0.5-0.3c-0.1-0.1-0.1-0.2-0.2-0.3
			C98.1,464,98.1,464,98.1,463.9z M98.3,462.1c0,0.2,0,0.3,0.1,0.4s0.1,0.3,0.2,0.4s0.2,0.2,0.4,0.2c0.1,0.1,0.3,0.1,0.4,0.1
			c0.2,0,0.3,0,0.4-0.1s0.3-0.1,0.4-0.2s0.2-0.2,0.2-0.4c0.1-0.1,0.1-0.3,0.1-0.5c0-0.1,0-0.3-0.1-0.4s-0.2-0.3-0.3-0.4
			c-0.1-0.1-0.2-0.2-0.4-0.2c-0.1-0.1-0.3-0.1-0.4-0.1c-0.2,0-0.3,0-0.4,0.1s-0.3,0.1-0.4,0.2s-0.2,0.2-0.2,0.4
			C98.3,461.8,98.3,462,98.3,462.1z"/>
		<path class="st5" d="M103.4,463.9c0-0.1,0-0.1,0.1-0.1l0.1-0.1h0.1c0,0,0.1,0,0.1,0.1s0.1,0.1,0.2,0.2s0.2,0.2,0.4,0.2
			c0.1,0.1,0.3,0.1,0.4,0.1s0.3,0,0.4-0.1s0.3-0.1,0.4-0.2s0.2-0.2,0.2-0.4c0.1-0.1,0.1-0.3,0.1-0.4v-0.1l-0.1,0.1
			c-0.1,0.1-0.3,0.2-0.5,0.3c-0.2,0.1-0.4,0.1-0.6,0.1s-0.4,0-0.6-0.1s-0.4-0.2-0.5-0.3c-0.1-0.1-0.3-0.3-0.3-0.5
			c-0.1-0.2-0.1-0.4-0.1-0.6s0-0.4,0.1-0.6s0.2-0.4,0.3-0.5c0.1-0.1,0.3-0.3,0.5-0.3c0.2-0.1,0.4-0.1,0.6-0.1s0.4,0,0.6,0.1
			s0.4,0.2,0.5,0.3c0,0,0,0,0.1,0.1v-0.2l0,0c0-0.1,0-0.1,0.1-0.1l0.1-0.1c0.1,0,0.1,0,0.1,0.1l0.1,0.1l0,0v2.3c0,0.2,0,0.4-0.1,0.6
			s-0.2,0.4-0.3,0.5c-0.1,0.1-0.3,0.3-0.5,0.3c-0.2,0.1-0.4,0.1-0.6,0.1s-0.4,0-0.6-0.1s-0.4-0.2-0.5-0.3c-0.1-0.1-0.1-0.2-0.2-0.3
			C103.4,464,103.4,464,103.4,463.9z M103.6,462.1c0,0.2,0,0.3,0.1,0.4s0.1,0.3,0.2,0.4s0.2,0.2,0.4,0.2c0.1,0.1,0.3,0.1,0.4,0.1
			s0.3,0,0.4-0.1s0.3-0.1,0.4-0.2s0.2-0.2,0.2-0.4c0.1-0.1,0.1-0.3,0.1-0.5c0-0.1,0-0.3-0.1-0.4s-0.2-0.3-0.3-0.4
			c-0.1-0.1-0.2-0.2-0.4-0.2c-0.1-0.1-0.3-0.1-0.4-0.1s-0.3,0-0.4,0.1s-0.3,0.1-0.4,0.2s-0.2,0.2-0.2,0.4
			C103.6,461.8,103.6,462,103.6,462.1z"/>
		<path class="st5" d="M106.5,463.3v-2.4c0-0.1,0-0.1,0.1-0.1l0.1-0.1c0.1,0,0.1,0,0.1,0.1l0.1,0.1v0.3c0,0,0-0.1,0.1-0.1
			c0.1-0.1,0.3-0.3,0.5-0.3c0.2-0.1,0.4-0.1,0.6-0.1l0,0c0.1,0,0.1,0,0.1,0.1l0.1,0.1c0,0.1,0,0.1-0.1,0.1l-0.1,0.1l0,0
			c-0.2,0-0.3,0-0.4,0.1s-0.3,0.1-0.4,0.2s-0.2,0.2-0.2,0.4c-0.1,0.1-0.1,0.3-0.1,0.4v1.1c0,0.1,0,0.1-0.1,0.1l-0.1,0.1
			c-0.1,0-0.1,0-0.1-0.1C106.5,463.4,106.5,463.4,106.5,463.3z"/>
		<path class="st5" d="M110.8,463.3L110.8,463.3v-0.2l-0.1,0.1c-0.1,0.1-0.3,0.2-0.5,0.3c-0.2,0.1-0.4,0.1-0.6,0.1s-0.4,0-0.6-0.1
			s-0.4-0.2-0.5-0.3c-0.1-0.1-0.3-0.3-0.3-0.5c-0.1-0.2-0.1-0.4-0.1-0.6s0-0.4,0.1-0.6s0.2-0.4,0.3-0.5c0.1-0.1,0.3-0.3,0.5-0.3
			c0.2-0.1,0.4-0.1,0.6-0.1s0.4,0,0.6,0.1s0.4,0.2,0.5,0.3c0.1,0.1,0.3,0.3,0.3,0.5c0.1,0.2,0.1,0.4,0.1,0.6v1.2
			c0,0.1,0,0.1-0.1,0.1l-0.1,0.1c-0.1,0-0.1,0-0.1-0.1C110.8,463.4,110.8,463.4,110.8,463.3z M108.5,462.1c0,0.2,0,0.3,0.1,0.4
			s0.1,0.3,0.2,0.4s0.2,0.2,0.4,0.2c0.1,0.1,0.3,0.1,0.4,0.1c0.2,0,0.3,0,0.4-0.1s0.3-0.1,0.4-0.2s0.2-0.2,0.2-0.4
			c0.1-0.1,0.1-0.3,0.1-0.4V462c0-0.2,0-0.3-0.1-0.4s-0.1-0.3-0.2-0.4s-0.2-0.2-0.4-0.2c-0.1-0.1-0.3-0.1-0.4-0.1
			c-0.2,0-0.3,0-0.4,0.1s-0.3,0.1-0.4,0.2s-0.2,0.2-0.2,0.4C108.5,461.8,108.5,462,108.5,462.1z"/>
		<path class="st5" d="M111.5,464.4v-2.3c0-0.2,0-0.4,0.1-0.6s0.2-0.4,0.3-0.5c0.1-0.1,0.3-0.3,0.5-0.3c0.2-0.1,0.4-0.1,0.6-0.1
			s0.4,0,0.6,0.1s0.4,0.2,0.5,0.3c0.1,0.1,0.3,0.3,0.3,0.5c0.1,0.2,0.1,0.4,0.1,0.6s0,0.4-0.1,0.6s-0.2,0.4-0.3,0.5
			c-0.1,0.1-0.3,0.3-0.5,0.3c-0.2,0.1-0.4,0.1-0.6,0.1s-0.4-0.1-0.7-0.2c-0.2-0.1-0.4-0.2-0.5-0.4v1.3c0,0.1,0,0.1-0.1,0.1l-0.1,0.1
			C111.5,464.5,111.5,464.5,111.5,464.4C111.6,464.5,111.5,464.5,111.5,464.4L111.5,464.4z M111.9,462.1c0,0.2,0,0.3,0.1,0.4
			s0.1,0.3,0.2,0.4s0.2,0.2,0.4,0.2c0.1,0.1,0.3,0.1,0.4,0.1c0.2,0,0.3,0,0.4-0.1s0.3-0.1,0.4-0.2s0.2-0.2,0.2-0.4
			c0.1-0.1,0.1-0.3,0.1-0.4c0-0.2,0-0.3-0.1-0.4s-0.1-0.3-0.2-0.4s-0.2-0.2-0.4-0.2c-0.1-0.1-0.3-0.1-0.4-0.1c-0.2,0-0.3,0-0.4,0.1
			s-0.3,0.1-0.4,0.2s-0.2,0.2-0.2,0.4C112,461.8,111.9,462,111.9,462.1z"/>
		<path class="st5" d="M115,463.3L115,463.3v-3.5c0-0.1,0-0.1,0.1-0.1l0.1-0.1c0.1,0,0.1,0,0.1,0.1l0.1,0.1l0,0v1.2
			c0-0.1,0.1-0.1,0.2-0.2c0.1,0,0.1-0.1,0.2-0.1s0.2-0.1,0.2-0.1c0.1,0,0.2,0,0.2,0c0.2,0,0.3,0,0.5,0.1s0.3,0.2,0.4,0.3
			c0.1,0.1,0.2,0.2,0.3,0.4c0.1,0.2,0.1,0.3,0.1,0.5v1.5l0,0c0,0.1,0,0.1-0.1,0.1l-0.1,0.1c-0.1,0-0.1,0-0.1-0.1l-0.1-0.1v-1.5
			c0-0.1,0-0.2-0.1-0.3c0-0.1-0.1-0.2-0.2-0.3c-0.1-0.1-0.2-0.1-0.3-0.2c-0.1,0-0.2-0.1-0.3-0.1c-0.1,0-0.2,0-0.3,0.1
			c-0.1,0-0.2,0.1-0.3,0.2c-0.1,0.1-0.1,0.2-0.2,0.3c0,0.1-0.1,0.2-0.1,0.3v1.5l0,0c0,0.1,0,0.1-0.1,0.1l-0.1,0.1
			c-0.1,0-0.1,0-0.1-0.1C115.1,463.4,115,463.4,115,463.3z"/>
		<path class="st5" d="M117.9,459.8c0-0.1,0-0.1,0.1-0.2c0,0,0.1-0.1,0.2-0.1s0.1,0,0.2,0.1c0,0,0.1,0.1,0.1,0.2s0,0.1-0.1,0.2
			c0,0-0.1,0.1-0.2,0.1s-0.1,0-0.2-0.1S117.9,459.9,117.9,459.8z M118,460.9c0-0.1,0-0.1,0.1-0.1l0.1-0.1c0.1,0,0.1,0,0.1,0.1
			l0.1,0.1v2.4c0,0.1,0,0.1-0.1,0.1l-0.1,0.1c-0.1,0-0.1,0-0.1-0.1l-0.1-0.1V460.9z"/>
		<path class="st5" d="M121.1,462.8c0-0.1,0.1-0.1,0.1-0.1h0.1c0.1,0,0.1,0,0.1,0.1c0,0,0,0.1,0,0.2s-0.1,0.2-0.2,0.3
			c-0.2,0.2-0.4,0.4-0.5,0.4c-0.2,0.1-0.4,0.1-0.6,0.1s-0.4,0-0.6-0.1s-0.4-0.2-0.5-0.3c-0.1-0.1-0.3-0.3-0.3-0.5
			c-0.1-0.2-0.1-0.4-0.1-0.6s0-0.4,0.1-0.6s0.2-0.4,0.3-0.5c0.1-0.1,0.3-0.3,0.5-0.3c0.2-0.1,0.4-0.1,0.6-0.1s0.4,0,0.6,0.1
			s0.4,0.2,0.5,0.4c0.1,0.1,0.2,0.2,0.2,0.3c0,0.1,0,0.1,0,0.1l-0.1,0.1c-0.1,0-0.1,0-0.2,0l-0.1-0.1c-0.1-0.2-0.3-0.3-0.4-0.4
			c-0.2-0.1-0.3-0.1-0.5-0.1s-0.3,0-0.4,0.1s-0.3,0.1-0.4,0.2s-0.2,0.2-0.2,0.4c-0.1,0.1-0.1,0.3-0.1,0.4c0,0.2,0,0.3,0.1,0.4
			s0.1,0.3,0.2,0.4s0.2,0.2,0.4,0.2c0.1,0.1,0.3,0.1,0.4,0.1c0.2,0,0.3,0,0.5-0.1C120.9,463.1,121,462.9,121.1,462.8z"/>
		<path class="st5" d="M126.9,459.8v2.3c0,0.2,0,0.4-0.1,0.6s-0.2,0.4-0.3,0.5c-0.1,0.1-0.3,0.3-0.5,0.3c-0.2,0.1-0.4,0.1-0.6,0.1
			s-0.4,0-0.6-0.1s-0.4-0.2-0.5-0.3c-0.1-0.1-0.3-0.3-0.3-0.5c-0.1-0.2-0.1-0.4-0.1-0.6s0-0.4,0.1-0.6s0.2-0.4,0.3-0.5
			c0.1-0.1,0.3-0.3,0.5-0.3c0.2-0.1,0.4-0.1,0.6-0.1s0.4,0.1,0.7,0.2c0.2,0.1,0.4,0.2,0.5,0.4v-1.3c0-0.1,0-0.1,0.1-0.1l0.1-0.1
			C126.9,459.7,126.9,459.7,126.9,459.8C126.9,459.7,126.9,459.7,126.9,459.8L126.9,459.8z M126.5,462.1c0-0.2,0-0.3-0.1-0.4
			s-0.1-0.3-0.2-0.4s-0.2-0.2-0.4-0.2c-0.1-0.1-0.3-0.1-0.4-0.1s-0.3,0-0.4,0.1s-0.3,0.1-0.4,0.2s-0.2,0.2-0.2,0.4
			c-0.1,0.1-0.1,0.3-0.1,0.4c0,0.2,0,0.3,0.1,0.4s0.1,0.3,0.2,0.4s0.2,0.2,0.4,0.2c0.1,0.1,0.3,0.1,0.4,0.1s0.3,0,0.4-0.1
			s0.3-0.1,0.4-0.2s0.2-0.2,0.2-0.4C126.5,462.4,126.5,462.3,126.5,462.1z"/>
		<path class="st5" d="M130,462h-2.5v0.1c0,0.2,0,0.3,0.1,0.4s0.1,0.3,0.2,0.4s0.2,0.2,0.4,0.2c0.1,0.1,0.3,0.1,0.4,0.1
			c0.2,0,0.3,0,0.4-0.1c0.1-0.1,0.3-0.1,0.4-0.2c0.1-0.1,0.1-0.1,0.1-0.1s0-0.1,0.1-0.1h0.1c0.1,0,0.1,0,0.1,0.1l0.1,0.1l0,0
			c0,0.1-0.1,0.2-0.2,0.3c-0.1,0.1-0.3,0.3-0.5,0.3c-0.2,0.1-0.4,0.1-0.6,0.1c-0.2,0-0.4,0-0.6-0.1c-0.2-0.1-0.4-0.2-0.5-0.3
			c-0.1-0.1-0.3-0.3-0.3-0.5c-0.1-0.2-0.1-0.4-0.1-0.6s0-0.4,0.1-0.6s0.2-0.4,0.3-0.5c0.1-0.1,0.3-0.3,0.5-0.3
			c0.2-0.1,0.4-0.1,0.6-0.1c0.2,0,0.4,0,0.6,0.1c0.2,0.1,0.4,0.2,0.5,0.3c0.1,0.1,0.3,0.3,0.3,0.5c0,0.1,0.1,0.2,0.1,0.2
			c0,0.1,0,0.2,0,0.2C130.2,462,130.1,462,130,462z M129.5,461.3c-0.1-0.1-0.2-0.2-0.4-0.2c-0.1-0.1-0.3-0.1-0.4-0.1
			c-0.2,0-0.3,0-0.4,0.1c-0.1,0.1-0.3,0.1-0.4,0.2s-0.2,0.2-0.2,0.3h2.1C129.7,461.5,129.6,461.4,129.5,461.3z"/>
		<path class="st5" d="M130.6,462.9c0-0.1,0-0.1,0.1-0.1l0.1-0.1h0.1c0,0,0,0.1,0.1,0.1c0.1,0.2,0.2,0.3,0.3,0.4s0.2,0.1,0.4,0.1
			s0.3,0,0.4-0.1c0.1-0.1,0.1-0.2,0.1-0.3c0-0.1,0-0.2-0.1-0.3c-0.1-0.1-0.1-0.1-0.2-0.2s-0.2-0.1-0.4-0.1c-0.1,0-0.3-0.1-0.4-0.1
			c-0.1-0.1-0.2-0.1-0.3-0.2s-0.1-0.2-0.2-0.4c0-0.1,0-0.2,0.1-0.3c0-0.1,0.1-0.2,0.2-0.3c0.1-0.1,0.2-0.1,0.3-0.2s0.3-0.1,0.4-0.1
			c0.1,0,0.3,0,0.4,0.1c0.1,0,0.2,0.1,0.2,0.1c0.1,0.1,0.1,0.1,0.1,0.1s0,0.1,0.1,0.1v0.1c0,0,0,0.1-0.1,0.1s-0.1,0-0.1,0h-0.1
			c0,0-0.1,0-0.1-0.1s-0.1-0.1-0.2-0.2c-0.1,0-0.2-0.1-0.3-0.1s-0.2,0-0.2,0c-0.1,0-0.2,0.1-0.2,0.2c-0.1,0.1-0.1,0.2-0.1,0.3
			c0,0.1,0.1,0.2,0.1,0.2c0.1,0,0.2,0.1,0.3,0.1s0.2,0.1,0.4,0.1c0.1,0,0.3,0.1,0.4,0.2c0.1,0.1,0.2,0.2,0.3,0.3
			c0.1,0.1,0.1,0.3,0.1,0.4s0,0.2-0.1,0.4c-0.1,0.1-0.1,0.2-0.2,0.3c-0.1,0.1-0.2,0.1-0.3,0.2c-0.1,0-0.2,0.1-0.4,0.1
			c-0.1,0-0.3,0-0.4-0.1c-0.1,0-0.2-0.1-0.3-0.2s-0.2-0.2-0.2-0.3C130.6,463,130.6,463,130.6,462.9L130.6,462.9z"/>
		<path class="st5" d="M132.9,459.8c0-0.1,0-0.1,0.1-0.2c0,0,0.1-0.1,0.2-0.1c0.1,0,0.1,0,0.2,0.1c0,0,0.1,0.1,0.1,0.2
			s0,0.1-0.1,0.2s-0.1,0.1-0.2,0.1c-0.1,0-0.1,0-0.2-0.1C132.9,459.9,132.9,459.9,132.9,459.8z M132.9,460.9c0-0.1,0-0.1,0.1-0.1
			l0.1-0.1c0.1,0,0.1,0,0.1,0.1l0.1,0.1v2.4c0,0.1,0,0.1-0.1,0.1l-0.1,0.1c-0.1,0-0.1,0-0.1-0.1l-0.1-0.1V460.9z"/>
		<path class="st5" d="M133.8,463.9c0-0.1,0-0.1,0.1-0.1l0.1-0.1h0.1c0,0,0.1,0,0.1,0.1s0.1,0.1,0.2,0.2c0.1,0.1,0.2,0.2,0.4,0.2
			c0.1,0.1,0.3,0.1,0.4,0.1c0.2,0,0.3,0,0.4-0.1c0.1-0.1,0.3-0.1,0.4-0.2c0.1-0.1,0.2-0.2,0.2-0.4c0.1-0.1,0.1-0.3,0.1-0.4v-0.1
			l-0.1,0.1c-0.1,0.1-0.3,0.2-0.5,0.3c-0.2,0.1-0.4,0.1-0.6,0.1c-0.2,0-0.4,0-0.6-0.1c-0.2-0.1-0.4-0.2-0.5-0.3
			c-0.1-0.1-0.3-0.3-0.3-0.5c-0.1-0.2-0.1-0.4-0.1-0.6s0-0.4,0.1-0.6s0.2-0.4,0.3-0.5s0.3-0.3,0.5-0.3c0.2-0.1,0.4-0.1,0.6-0.1
			c0.2,0,0.4,0,0.6,0.1c0.2,0.1,0.4,0.2,0.5,0.3c0,0,0,0,0.1,0.1v-0.2l0,0c0-0.1,0-0.1,0.1-0.1l0.1-0.1c0.1,0,0.1,0,0.1,0.1l0.1,0.1
			l0,0v2.3c0,0.2,0,0.4-0.1,0.6s-0.2,0.4-0.3,0.5s-0.3,0.3-0.5,0.3c-0.2,0.1-0.4,0.1-0.6,0.1c-0.2,0-0.4,0-0.6-0.1
			c-0.2-0.1-0.4-0.2-0.5-0.3c-0.1-0.1-0.1-0.2-0.2-0.3C133.8,464,133.8,464,133.8,463.9z M134,462.1c0,0.2,0,0.3,0.1,0.4
			s0.1,0.3,0.2,0.4c0.1,0.1,0.2,0.2,0.4,0.2c0.1,0.1,0.3,0.1,0.4,0.1c0.2,0,0.3,0,0.4-0.1c0.1-0.1,0.3-0.1,0.4-0.2
			c0.1-0.1,0.2-0.2,0.2-0.4c0.1-0.1,0.1-0.3,0.1-0.5c0-0.1,0-0.3-0.1-0.4s-0.2-0.3-0.3-0.4s-0.2-0.2-0.4-0.2
			c-0.1-0.1-0.3-0.1-0.4-0.1c-0.2,0-0.3,0-0.4,0.1c-0.1,0.1-0.3,0.1-0.4,0.2c-0.1,0.1-0.2,0.2-0.2,0.4S134,462,134,462.1z"/>
		<path class="st5" d="M137.1,460.9c0-0.1,0-0.1,0.1-0.1l0.1-0.1c0.1,0,0.1,0,0.1,0.1l0.1,0.1v0.1c0-0.1,0.1-0.1,0.2-0.2
			c0.1-0.1,0.1-0.1,0.2-0.1c0.1,0,0.2-0.1,0.2-0.1c0.1,0,0.2,0,0.3,0c0.2,0,0.3,0,0.5,0.1s0.3,0.2,0.4,0.3c0.1,0.1,0.2,0.2,0.3,0.4
			c0.1,0.2,0.1,0.3,0.1,0.5v1.5c0,0.1,0,0.1-0.1,0.1l-0.1,0.1c-0.1,0-0.1,0-0.1-0.1l-0.1-0.1v-1.5c0-0.1,0-0.2-0.1-0.3
			c0-0.1-0.1-0.2-0.2-0.3c-0.1-0.1-0.2-0.1-0.3-0.2c-0.1,0-0.2-0.1-0.3-0.1s-0.2,0-0.3,0.1c-0.1,0-0.2,0.1-0.3,0.2s-0.1,0.2-0.2,0.3
			c0,0.1-0.1,0.2-0.1,0.3v1.5c0,0.1,0,0.1-0.1,0.1l-0.1,0.1c-0.1,0-0.1,0-0.1-0.1l-0.1-0.1L137.1,460.9L137.1,460.9z"/>
	</g>
	<rect x="20.2" y="430.9" class="st24" width="119.4" height="0.3"/>
	<rect x="20.2" y="471.5" class="st24" width="119.4" height="0.3"/>
	<path class="st5" d="M90.6,454.5v-0.2c0.8,0,1.7-0.2,2.4-0.5c0.7-0.3,1.4-0.8,2-1.3c0.6-0.6,1-1.2,1.3-2c0.3-0.7,0.5-1.6,0.5-2.4
		v-8.4c0-0.3-0.1-0.6-0.4-0.9c-0.2-0.2-0.6-0.4-0.9-0.4s-0.6,0.1-0.9,0.4l-0.1-0.1c0.3-0.3,0.6-0.4,1-0.4s0.7,0.1,1,0.4
		s0.4,0.6,0.4,1v8.4c0,0.9-0.2,1.7-0.5,2.5s-0.8,1.4-1.3,2c-0.6,0.6-1.2,1-2,1.4C92.3,454.3,91.4,454.5,90.6,454.5z"/>
	<path class="st5" d="M102.8,454.5c-0.9,0-1.7-0.2-2.5-0.5s-1.4-0.8-2-1.3l0.1-0.1c0.6,0.6,1.2,1,2,1.3c0.7,0.3,1.6,0.5,2.4,0.5
		s1.7-0.2,2.4-0.5c0.7-0.3,1.4-0.8,2-1.3c0.6-0.6,0.9-1.1,1-1.5l0,0V451c0-0.3-0.1-0.6-0.4-0.9l0.1-0.1c0.3,0.3,0.4,0.6,0.4,1v0.2
		c0,0.4-0.4,0.9-1,1.6c-0.6,0.6-1.2,1-2,1.4C104.5,454.3,103.7,454.5,102.8,454.5z M108.6,448.1l-0.1-0.1c0.2-0.2,0.4-0.6,0.3-1.2
		c0-0.1-0.1-0.4-0.3-0.9l0,0c-0.3-0.7-0.8-1.4-1.3-2c-0.6-0.6-1.2-1-2-1.3c-0.7-0.3-1.6-0.5-2.4-0.5s-1.7,0.2-2.4,0.5l-0.1-0.1
		c0.8-0.3,1.6-0.5,2.5-0.5s1.7,0.2,2.5,0.5s1.4,0.8,2,1.4s1,1.2,1.3,2l0,0c0.2,0.6,0.3,0.8,0.3,1
		C109.1,447.4,108.8,447.8,108.6,448.1z"/>
</g>
</svg>
